<?xml version="1.0" encoding="UTF-8" standalone="no"?>
<svg
   xmlns:dc="http://purl.org/dc/elements/1.1/"
   xmlns:cc="http://creativecommons.org/ns#"
   xmlns:rdf="http://www.w3.org/1999/02/22-rdf-syntax-ns#"
   xmlns:svg="http://www.w3.org/2000/svg"
   xmlns="http://www.w3.org/2000/svg"
   xmlns:sodipodi="http://sodipodi.sourceforge.net/DTD/sodipodi-0.dtd"
   xmlns:inkscape="http://www.inkscape.org/namespaces/inkscape"
   width="138.05853mm"
   height="34.197865mm"
   viewBox="0 0 138.05853 34.197865"
   version="1.1"
   id="svg8"
   inkscape:version="1.0.2 (1.0.2+r75+1)"
   sodipodi:docname="altosolo_horizontal.svg"
   inkscape:export-filename="/home/artloveyou/ksyusha/altosolo_horizontal.png"
   inkscape:export-xdpi="96"
   inkscape:export-ydpi="96">
  <defs
     id="defs2">
    <rect
       x="15.383639"
       y="57.268433"
       width="179.98798"
       height="100.68536"
       id="rect835" />
  </defs>
  <sodipodi:namedview
     id="base"
     pagecolor="#ffffff"
     bordercolor="#666666"
     borderopacity="1.0"
     inkscape:pageopacity="0.0"
     inkscape:pageshadow="2"
     inkscape:zoom="0.58443172"
     inkscape:cx="25.987158"
     inkscape:cy="88.003757"
     inkscape:document-units="mm"
     inkscape:current-layer="text833"
     inkscape:document-rotation="0"
     showgrid="false"
     fit-margin-top="0"
     fit-margin-left="0"
     fit-margin-right="0"
     fit-margin-bottom="0"
     inkscape:window-width="1920"
     inkscape:window-height="1003"
     inkscape:window-x="0"
     inkscape:window-y="0"
     inkscape:window-maximized="1" />
  <metadata
     id="metadata5">
    <rdf:RDF>
      <cc:Work
         rdf:about="">
        <dc:format>image/svg+xml</dc:format>
        <dc:type
           rdf:resource="http://purl.org/dc/dcmitype/StillImage" />
        <dc:title />
      </cc:Work>
    </rdf:RDF>
  </metadata>
  <g
     inkscape:label="Layer 1"
     inkscape:groupmode="layer"
     id="layer1"
     transform="translate(-34.220029,-20.897151)">
    <g
       aria-label="alto solo"
       transform="matrix(4.0074338,0,0,4.0074338,-49.337234,-201.0362)"
       id="text833"
       style="font-style:normal;font-weight:normal;font-size:10.5833px;line-height:1.25;font-family:sans-serif;white-space:pre;shape-inside:url(#rect835);fill:#000000;fill-opacity:1;stroke:none">
      <path
         id="path839"
         style="font-style:normal;font-variant:normal;font-weight:normal;font-stretch:normal;font-family:'Giulio No2';-inkscape-font-specification:'Giulio No2';stroke-width:1"
         d="m 29.926112,55.380416 -1.270043,0.402199 -0.317478,0.740826 c 0,0 -0.02114,0.05284 -0.0423,0.09517 -2.285992,5.238734 -2.455299,5.651534 -2.529381,5.969033 -0.09525,0.455082 -0.04229,0.687927 0.105868,0.867843 0.137583,0.148166 0.317459,0.24346 0.486792,0.24346 h 1.291191 l 0.412644,-0.920842 h -0.963009 c -0.201083,0 -0.264626,-0.05292 -0.24346,-0.148165 0.01058,-0.0635 0.03183,-0.137535 0.053,-0.201035 0.391582,-0.920747 0.793696,-1.85213 0.793696,-1.85213 l 0.179887,-0.423347 0.29633,-0.698401 0.867843,-2.032017 0.4022,-0.920713 z m 22.11749,0 -1.270042,0.402199 -0.317479,0.740826 c 0,0 -0.02114,0.05284 -0.0423,0.09517 -2.285992,5.238734 -2.455428,5.651534 -2.529511,5.969033 -0.09525,0.455082 -0.04229,0.687927 0.105869,0.867843 0.137583,0.148166 0.317459,0.24346 0.486792,0.24346 h 1.29119 l 0.412774,-0.920842 h -0.963138 c -0.201083,0 -0.264498,-0.05292 -0.243331,-0.148165 0.01058,-0.0635 0.0317,-0.137535 0.05287,-0.201035 0.391582,-0.920747 0.793824,-1.85213 0.793825,-1.85213 l 0.179886,-0.423347 0.296331,-0.698401 0.867843,-2.032017 0.402071,-0.920713 z m -20.479033,2.698695 -1.185322,0.180017 -0.656234,1.481651 h -0.846566 l -0.328181,0.931287 0.814973,0.01057 c 0,0 -0.423372,0.941947 -0.836121,1.873277 -0.243416,0.539749 -0.07411,0.931259 0.476217,1.111174 0.0635,0.02117 0.12709,0.03185 0.190591,0.03185 h 1.227617 L 30.813169,62.8311 c 0,0 -0.539843,0.01056 -1.069008,0.02115 -0.03175,0 -0.05284,6e-6 -0.08459,-0.01058 -0.05292,-0.01058 -0.08474,-0.07409 -0.06357,-0.137591 l 0.899694,-2.000294 h 0.814844 l 0.423348,-0.96301 h -0.867843 z m 9.94383,0.963139 -1.883851,2.180181 0.814973,0.370348 c 0,0 0.423236,-0.529169 0.698402,-0.730251 0.05292,0.105833 0.09527,0.222339 0.127016,0.338755 0.127,0.571498 0.01064,1.005369 -0.211609,1.227618 -0.253998,0.253999 -0.50804,0.359775 -0.687956,0.359775 -0.592664,-0.01058 -1.185321,-0.02115 -1.185321,-0.02115 l -0.412773,0.931416 h 1.703963 c 0.137583,0 0.285719,-0.02124 0.476218,-0.07415 1.037164,-0.296332 1.693328,-1.492187 1.174748,-3.153765 -0.05292,-0.158749 -0.105804,-0.317606 -0.179888,-0.465772 l 0.15874,-0.232758 c 0,0 0.07407,-0.105895 0.158738,-0.222312 0.127001,-0.169332 0.254054,-0.338606 0.381052,-0.507939 z m -7.459194,0.481504 c -0.40416,0.0025 -0.877181,0.163426 -1.350122,0.534504 -0.190499,0.148166 -0.370339,0.349264 -0.529087,0.571513 -0.984248,1.439328 -0.751434,2.592896 0.169313,3.100894 0.740831,0.402166 1.767375,0.158755 2.539956,-0.888991 0.285749,-0.391583 0.433876,-0.751462 0.486791,-1.121877 l 0.45507,-0.105869 0.359903,-0.814844 h -0.19046 c -0.1905,-0.02117 -0.381023,-0.06352 -0.56094,-0.127018 -0.01058,-0.04233 -0.02114,-0.08469 -0.04229,-0.127017 -0.179917,-0.539749 -0.338706,-0.730204 -0.836122,-0.931287 -0.148827,-0.05953 -0.318298,-0.09113 -0.502007,-0.09001 z m 11.678743,0 c -0.40416,0.0025 -0.877051,0.163426 -1.349992,0.534504 -0.1905,0.148166 -0.370467,0.349264 -0.529217,0.571513 -0.984247,1.439328 -0.751433,2.592896 0.169313,3.100894 0.740831,0.402166 1.767505,0.158755 2.540086,-0.888991 0.28575,-0.391583 0.433875,-0.751462 0.486791,-1.121877 l 0.45507,-0.105869 0.359904,-0.814844 h -0.190591 c -0.190499,-0.02117 -0.380894,-0.06352 -0.560809,-0.127018 -0.01058,-0.04233 -0.02127,-0.08469 -0.04243,-0.127017 -0.179916,-0.539749 -0.338577,-0.730204 -0.835992,-0.931287 -0.148827,-0.05953 -0.318427,-0.09113 -0.502137,-0.09001 z m 7.441401,0 c -0.404161,0.0025 -0.877052,0.163426 -1.349993,0.534504 -0.190499,0.148166 -0.370467,0.349264 -0.529216,0.571513 -0.984248,1.439328 -0.751435,2.592896 0.169313,3.100894 0.740831,0.402166 1.767503,0.158755 2.540084,-0.888991 0.28575,-0.391583 0.433875,-0.751462 0.486792,-1.121877 l 0.45507,-0.105869 0.359774,-0.814844 h -0.190461 c -0.190499,-0.02117 -0.381022,-0.06352 -0.560939,-0.127018 -0.01058,-0.04233 -0.02114,-0.08469 -0.0423,-0.127017 -0.179916,-0.539749 -0.338706,-0.730204 -0.836121,-0.931287 -0.148828,-0.05953 -0.318299,-0.09113 -0.502007,-0.09001 z m -28.184785,0.12921 c -0.340745,4.41e-4 -0.707223,0.04544 -1.123941,0.140685 -0.465665,0.105833 -0.836091,0.254005 -1.164173,0.433922 -0.507999,0.285749 -0.878433,0.59263 -1.153599,0.920713 -0.359832,0.433915 -0.560994,0.825582 -0.64566,1.227747 -0.201083,0.910164 0.27527,1.449801 0.910268,1.449801 0.634998,0.01058 1.089968,-0.158719 1.449801,-0.476218 0.03175,0.0635 0.0741,0.126971 0.127017,0.179887 0.127,0.127 0.211673,0.158868 0.285756,0.158868 h 1.164174 l 0.381051,-0.846695 h -0.48692 c -0.116416,-0.01058 -0.232784,-0.02114 -0.349201,-0.0423 -0.137582,-0.03175 -0.222187,-0.232866 -0.07402,-0.550364 0.07408,-0.169334 0.158739,-0.34933 0.158739,-0.34933 l 0.09517,-0.201035 0.275182,-0.550365 c -0.105833,-0.02117 -0.211637,-0.03172 -0.328053,-0.03172 -0.698498,0.02117 -0.783203,0.08468 -0.984286,0.582087 -0.02117,0.0635 -0.04227,0.126961 -0.07402,0.190461 -0.02117,0.0635 -0.0424,0.12709 -0.07415,0.19059 -0.253999,0.603248 -0.306874,0.65618 -0.783122,0.719678 -0.105833,0.01058 -0.211654,0.02116 -0.306905,0.01057 -0.201082,0 -0.370394,-0.232921 -0.317478,-0.48692 0.07408,-0.317499 0.285668,-0.61375 0.973583,-1.121749 0.317499,-0.243416 0.687972,-0.412809 1.111304,-0.518642 0.359832,-0.09525 0.71961,-0.116468 1.090026,-0.08472 0,0 0.370402,-0.592549 0.603235,-0.867714 -0.2454,-0.05093 -0.494758,-0.07759 -0.759782,-0.07724 z m 8.899841,0.828642 c -0.02117,0.05292 -0.04228,0.116386 -0.06344,0.179887 -0.105833,0.507998 0.03173,0.783093 0.465643,0.963009 0.04233,0.02117 0.08468,0.04241 0.137592,0.053 -0.04233,0.338665 -0.179867,0.603233 -0.497367,0.899565 -0.137583,0.127 -0.275198,0.232831 -0.402199,0.29633 -0.486831,0.254001 -0.941915,0.0318 -1.026582,-0.3492 -0.05292,-0.211666 -0.03181,-0.423418 0.06344,-0.783251 0.04233,-0.148166 0.105896,-0.296311 0.222312,-0.465644 0.338666,-0.497415 0.67727,-0.719613 1.100601,-0.793696 z m 11.678872,0 c -0.02117,0.05292 -0.04227,0.116386 -0.06344,0.179887 -0.105833,0.507998 0.03173,0.783093 0.465644,0.963009 0.04233,0.02117 0.08468,0.04241 0.137591,0.053 -0.04233,0.338665 -0.179996,0.603233 -0.497494,0.899565 -0.137583,0.127 -0.275071,0.232831 -0.402071,0.29633 -0.486832,0.254001 -0.941917,0.0318 -1.026583,-0.3492 -0.05292,-0.211666 -0.03181,-0.423418 0.06344,-0.783251 0.04233,-0.148166 0.105896,-0.296311 0.222312,-0.465644 0.338666,-0.497415 0.677269,-0.719613 1.1006,-0.793695 z m 7.4414,0 c -0.02117,0.05292 -0.0424,0.116386 -0.06357,0.179887 -0.105832,0.507998 0.03186,0.783093 0.465773,0.963009 0.04233,0.02117 0.08468,0.04241 0.137591,0.053 -0.04233,0.338665 -0.179995,0.603233 -0.497495,0.899565 -0.137583,0.127 -0.275199,0.232831 -0.402199,0.29633 -0.486831,0.254001 -0.941915,0.0318 -1.026583,-0.3492 -0.05292,-0.211666 -0.03168,-0.423418 0.06357,-0.783251 0.04233,-0.148166 0.105766,-0.296311 0.222183,-0.465644 0.338665,-0.497415 0.677397,-0.719613 1.100729,-0.793695 z" />
    </g>
  </g>
</svg>
