<svg width="1195" height="1195" viewBox="0 0 1195 1195" fill="none" xmlns="http://www.w3.org/2000/svg">
<circle cx="597.218" cy="597.154" r="596.968" fill="black"/>
<path fill-rule="evenodd" clip-rule="evenodd" d="M463.506 145.128V147.128L495.506 135.128L494.506 138.128L502.506 136.128L485.506 151.128L492.506 152.128V153.128L456.506 167.128L453.506 180.128L458.506 179.128V180.128C449.835 184.763 440.766 188.337 431.699 191.911C419.655 196.659 407.613 201.406 396.506 208.634C388.57 213.798 380.851 219.896 373.067 226.046C357.833 238.081 342.349 250.313 324.506 256.128L323.506 251.128V250.128C324.907 248.607 326.56 246.962 328.313 245.216C335.292 238.269 343.863 229.737 344.506 221.128C348.656 219.636 350.437 216.018 352.275 212.286C352.968 210.881 353.668 209.459 354.506 208.128L330.506 220.128C333.337 211.824 341.468 207.577 349.382 203.443C353.383 201.352 357.329 199.291 360.506 196.75C363.536 194.326 366.297 191.608 369.059 188.891L369.059 188.891C372.675 185.332 376.292 181.774 380.51 178.875C403.87 162.819 435.818 150.917 463.506 145.128ZM563.506 140.128V139.128L618.506 140.128L617.506 142.128C623.029 142.128 628.499 141.808 633.962 141.49C644.721 140.861 655.452 140.235 666.506 142.048C667.294 142.177 668.102 142.295 668.918 142.414L668.919 142.414C674.482 143.224 680.449 144.093 683.506 149.128L666.506 154.128V153.128L671.506 152.128L663.506 149.128V148.128L666.506 146.128C664.709 146.114 662.568 145.921 660.276 145.714C653.269 145.084 644.847 144.325 640.506 148.128L647.506 147.128C645.559 153.138 639.989 152.318 639.506 146.128C637.609 146.047 635.565 145.813 633.456 145.572C626.512 144.779 618.872 143.906 613.506 148.128H612.506H606.506L603.506 147.128L607.506 151.128L563.506 157.128V156.128L571.506 154.128L570.506 150.128L578.506 143.128L573.506 144.128L575.506 141.128L563.506 140.128ZM530.506 148.128V149.128L570.506 144.128C562.115 140.608 551.216 143.317 541.373 145.764C537.517 146.722 533.823 147.641 530.506 148.128ZM772.506 154.128L776.506 152.128L785.506 159.128V160.128L772.506 155.128V154.128ZM743.506 154.128V155.128L749.506 157.128L748.506 160.128L766.506 164.128V165.128L757.506 164.128V165.128L794.506 177.128L793.506 173.128C794.385 173.587 795.945 174.225 797.828 174.996C805.127 177.986 817.283 182.964 813.506 187.128L834.506 195.128V191.128L824.506 184.128L827.506 185.128V184.128C825.501 183.207 823.55 182.325 821.637 181.46C812.198 177.191 803.691 173.344 794.335 167.334C791.118 165.267 788.026 163.691 785.506 167.128C782.491 166.267 759.989 159.815 765.506 157.128C759.449 152.813 750.549 153.243 743.506 154.128ZM890.506 225.128L904.506 236.128C902.345 229.824 896.926 226.287 890.506 225.128ZM894.506 233.128L896.506 236.128L890.506 238.128L906.506 250.128L904.506 247.128L909.506 248.128L904.506 242.128C909.034 242.675 913.403 246.169 915.506 250.128L910.506 248.128V249.128L916.506 251.128V252.128H910.506C912.071 255.34 914.666 257.582 917.286 259.847C919.18 261.484 921.087 263.133 922.63 265.167C924.354 267.442 926.006 269.745 927.651 272.04L927.652 272.042L927.653 272.043L927.654 272.044L927.655 272.045L927.656 272.046C931.923 277.998 936.151 283.894 941.503 289.089C948.553 295.934 956.248 302.439 963.997 308.99L963.997 308.991C980.48 322.926 997.21 337.069 1008.51 355.128C1002.71 360.676 1022.06 375.8 1026.51 379.128L1013.51 357.128L1028.51 366.128L1023.51 358.128L1035.51 368.128L1024.51 343.128C1020.98 344.412 1019.39 342.174 1017.66 339.729C1016.9 338.658 1016.12 337.549 1015.13 336.677C1012.56 334.42 1009.92 332.331 1007.28 330.24C1003.27 327.071 999.259 323.898 995.507 320.128C987.815 312.402 980.635 304.043 973.45 295.678L973.449 295.677L973.449 295.677C961.315 281.55 949.165 267.405 934.506 256.258C933.14 255.22 931.545 253.832 929.802 252.314C923.697 246.998 915.774 240.101 909.506 241.128L908.506 237.128L903.506 241.128C900.657 239.581 898.847 238.506 899.506 235.128L894.506 233.128ZM256.918 273.91L270.506 258.128C273.313 263.808 265.716 271.286 260.923 276.004C260.173 276.742 259.492 277.413 258.93 277.998C254.818 282.283 250.481 286.433 246.13 290.596C234.768 301.468 223.308 312.433 215.506 326.128L221.506 325.128C217.219 334.603 212.055 344.856 203.506 351.128L205.506 340.128L193.506 359.128L192.506 356.128C184.559 365.835 178.288 379.152 174.603 391.128C173.907 393.389 173.533 395.508 173.166 397.579C172.547 401.081 171.952 404.447 169.872 408.128C167.903 411.614 165.003 414.629 162.106 417.642C157.441 422.493 152.782 427.337 152.024 434.128C151.711 436.937 152.806 439.305 153.905 441.681C154.852 443.729 155.802 445.782 155.854 448.128C155.991 454.303 154.107 460.442 152.241 466.523C151.047 470.417 149.859 474.287 149.214 478.128C148.673 481.352 148.414 484.552 148.158 487.72C147.508 495.767 146.874 503.601 141.666 511.066C139.151 514.672 131.745 517.121 128.685 512.694C125.708 508.388 126.817 502.277 127.88 496.425C128.554 492.714 129.209 489.106 128.79 486.128C128.141 481.506 125.322 477.545 122.527 473.62C118.345 467.746 114.219 461.95 117.506 454.128L120.506 455.128C121.29 453.45 122.356 451.77 123.434 450.07C125.258 447.194 127.119 444.259 127.728 441.167C127.962 439.978 127.717 438.82 127.475 437.675C127.162 436.197 126.853 434.738 127.587 433.258C128.528 431.36 129.907 429.824 131.295 428.279C132.939 426.448 134.595 424.605 135.55 422.128C136.226 420.378 136.468 418.449 136.708 416.532C136.976 414.398 137.242 412.277 138.101 410.427C138.975 408.547 140.52 406.955 142.1 405.327C143.649 403.73 145.231 402.099 146.246 400.128C146.472 399.691 146.71 399.236 146.956 398.766L146.957 398.765C150.081 392.802 154.462 384.44 149.506 379.128C149.776 378.278 150.047 377.423 150.319 376.566L150.335 376.516C157.988 352.397 166.442 325.754 179.715 304.128C181.639 300.993 194.371 282.523 198.477 286.929C200.151 288.725 199.478 292.438 198.939 295.414C198.753 296.444 198.582 297.385 198.53 298.128C198.064 304.807 195.787 311.059 193.508 317.316C191.275 323.447 189.04 329.583 188.506 336.128C201.368 326.643 217.93 314.139 227.506 301.128L224.506 300.128L242.506 280.128L246.506 283.128L256.918 273.91ZM1065.51 497.128L1067.51 495.128C1072.04 504.839 1076.44 519.867 1072.51 530.128H1076.51L1073.51 493.128L1078.51 497.128H1079.51L1079.5 496.61C1079.45 475.083 1079.37 447.82 1066.07 430.128C1058.97 420.688 1049.39 410.458 1038.51 420.128C1038.45 417.78 1035.35 407.516 1031.83 413.718C1030.8 415.547 1032.61 417.585 1034.51 419.705C1036.1 421.485 1037.74 423.323 1037.78 425.143C1038.11 438.274 1043.26 446.797 1049.03 456.344C1051.42 460.297 1053.91 464.425 1056.22 469.128C1059.18 475.177 1061.11 481.972 1063 488.644L1063 488.645C1063.81 491.519 1064.62 494.37 1065.51 497.128ZM115.506 560.128L118.506 550.128L120.795 586.128L127.336 619.128L127.506 684.128H126.506L125.506 681.128H124.506L127.506 704.128L123.506 697.128C125.338 694.268 124.323 692.08 123.221 689.703C122.56 688.278 121.868 686.786 121.739 685.039C121.565 682.684 121.645 680.44 121.724 678.226C121.865 674.258 122.002 670.384 120.674 666.128C119.682 662.951 117.978 660.271 116.285 657.608C114.764 655.217 113.252 652.839 112.271 650.124C106.632 634.53 107.315 619.803 108.026 604.485C108.244 599.769 108.466 594.998 108.506 590.128L104.506 594.128H103.506L114.506 551.128H115.506V560.128ZM1072.51 604.128L1072.49 623.038L1068.7 632.132L1066.63 670.128L1053.95 690.128L1050.57 707.128L1040.14 722.128L1029.59 747.128L1026.75 769.128L1020.87 781.128L1020.51 799.128L1024.51 797.128C1028.07 808.448 1024.54 818.192 1015.51 826.128C1014.19 820.019 1008.27 827.74 1005.66 831.14C1005.45 831.42 1005.26 831.671 1005.09 831.882C1005.02 831.972 1004.96 832.054 1004.9 832.128C1002.38 835.252 999.718 838.296 997.05 841.347C990.527 848.809 983.965 856.314 979.395 865.128C976.362 870.976 973.053 877.737 980.506 881.128L979.506 884.128C990.863 877.559 1005.39 863.423 1010.51 851.128L1013.51 852.128L1028.36 820.128L1036.55 797.552L1051.51 771.128L1045.51 778.128C1046.43 771.874 1048.73 765.409 1053.51 761.128C1052.33 752.755 1056.27 746.946 1060.34 740.94C1062.44 737.848 1064.57 734.703 1066.06 731.128C1071.85 717.208 1074.38 704.17 1077.03 690.508C1078.06 685.173 1079.11 679.743 1080.39 674.128C1080.82 672.209 1081.83 669.685 1082.93 666.937L1082.93 666.936C1086.54 657.923 1091.11 646.506 1079.51 646.128L1076.51 664.128H1075.51C1075.51 659.617 1075.76 654.598 1076.03 649.348C1076.81 633.921 1077.7 616.503 1072.51 604.128ZM146.506 709.128L143.506 694.128H145.506L148.506 703.128L149.506 701.128H150.506C151.392 707.99 154.2 714.228 157.025 720.505C158.596 723.996 160.173 727.499 161.428 731.128C163.34 736.66 164.594 742.453 165.848 748.243C167.391 755.374 168.934 762.501 171.705 769.128C176.122 779.692 182.138 789.745 188.141 799.776C192.763 807.5 197.377 815.21 201.247 823.128C203.829 828.414 204.993 833.889 206.156 839.365C207.212 844.332 208.268 849.3 210.382 854.128C214.583 863.726 220.536 872.2 226.477 880.655C229.693 885.234 232.907 889.808 235.836 894.552C238.132 898.271 240.136 902.098 242.136 905.916C245.56 912.454 248.969 918.964 253.801 924.842C269.02 943.361 289.995 962.308 309.596 975.993C311.826 977.551 314.976 979.128 318.344 980.815C326.025 984.662 334.844 989.079 336.506 995.128C347.709 995.176 356.657 1004.05 365.17 1012.49C369.647 1016.93 374.004 1021.25 378.506 1024.1C391.77 1032.51 407.014 1038.37 422.109 1044.17C430.757 1047.49 439.356 1050.79 447.506 1054.55C448.283 1054.9 449.114 1055.28 449.977 1055.66C454.205 1057.55 459.198 1059.79 462.423 1062.43C463.523 1063.34 464.351 1064.46 465.171 1065.56C466.367 1067.18 467.548 1068.78 469.534 1069.66C472.774 1071.09 475.107 1069.94 477.519 1068.75C479.823 1067.62 482.199 1066.44 485.506 1067.46C487.303 1068.01 488.832 1069.07 490.367 1070.14C491.969 1071.24 493.578 1072.36 495.506 1072.91C498.428 1073.74 501.247 1073.51 504.07 1073.28C506.523 1073.08 508.978 1072.88 511.506 1073.38C515.842 1074.23 520.155 1075.13 524.462 1076.02C538.033 1078.85 551.542 1081.66 565.506 1083.05C581.09 1084.6 597.287 1084.1 613.311 1083.61C621.114 1083.37 628.876 1083.13 636.506 1083.13C637.56 1083.13 638.64 1083.13 639.743 1083.13C659.274 1083.17 686.054 1083.21 702.478 1073.05C704.405 1071.85 704.94 1070.03 705.49 1068.16C706.116 1066.02 706.762 1063.82 709.506 1062.41C713.542 1060.33 731.649 1057.15 732.506 1061.13L727.506 1062.13V1063.13C735.203 1063.7 742.489 1060.62 749.663 1057.6C752.287 1056.49 754.897 1055.39 757.506 1054.47L758.735 1054.04C783.161 1045.48 809.36 1036.3 831.506 1022.92C835.125 1020.74 838.827 1017.66 842.628 1014.5C849.853 1008.49 857.439 1002.18 865.506 1001.13L859.506 994.128C863.571 986.46 867.555 986.982 872.745 987.661C874.796 987.93 877.037 988.223 879.545 988.044C884.732 987.675 890.436 983.919 894.506 980.97C922.598 960.613 955.842 934.918 975.506 906.128H976.506V911.128L973.506 912.128V913.128C976.531 916.313 972.052 920.78 969.2 923.623C968.821 924.001 968.471 924.351 968.171 924.664C965.961 926.975 963.815 929.455 961.648 931.957C955.661 938.872 949.525 945.959 941.506 950.128C941.276 955.899 936.312 959.905 931.793 963.552C930.64 964.483 929.515 965.39 928.506 966.297C924.991 969.457 921.512 972.67 918.03 975.885C908.163 984.995 898.276 994.125 887.505 1002.13C875.112 1011.34 861.971 1019.07 848.758 1026.85C844.006 1029.65 839.245 1032.45 834.506 1035.33C831.874 1036.93 829.453 1038.94 827.042 1040.93C824.286 1043.22 821.542 1045.49 818.506 1047.14C816.084 1048.45 813.331 1049.06 810.566 1049.67C808.151 1050.2 805.726 1050.74 803.506 1051.75C800.603 1053.07 797.709 1054.39 794.819 1055.71C776.502 1064.07 758.386 1072.34 739.506 1079.59C734.492 1081.52 729.54 1083.57 724.596 1085.63C710.284 1091.58 696.034 1097.5 680.506 1100.13L684.506 1105.13V1107.13C670.389 1111.13 656.309 1111.6 642.2 1112.07C632.323 1112.4 622.432 1112.73 612.506 1114.28C609.774 1114.7 607.307 1117.1 604.873 1119.47C601.934 1122.33 599.043 1125.14 595.791 1124.38C591.404 1123.34 587.741 1119.62 584.141 1115.95C581.316 1113.08 578.53 1110.24 575.463 1108.78C571.935 1107.1 567.764 1106.47 563.58 1105.85C557.166 1104.89 550.719 1103.92 546.506 1099.13L549.506 1098.13V1096.13L522.506 1092.13L523.506 1095.13C520.326 1095.13 516.366 1095.22 516.506 1099.13L506.451 1092.27L483.506 1087.13V1086.13L487.506 1085.13C484.157 1079.34 474.136 1078.05 465.601 1076.96C462.145 1076.52 458.934 1076.1 456.506 1075.44C442.873 1071.69 429.378 1065.94 416.121 1060.29C411.553 1058.35 407.013 1056.41 402.506 1054.57C399.372 1053.3 396.048 1052.53 392.749 1051.76C388.077 1050.68 383.457 1049.61 379.506 1047.13L380.506 1044.13L397.506 1049.13V1048.13C395.003 1046.96 392.6 1045.78 390.247 1044.62C380.681 1039.91 371.927 1035.6 360.506 1034.13L366.506 1044.13C339.05 1034.32 309.841 1018.15 286.506 1000.49C284.888 999.265 283.317 997.969 281.746 996.671C278.482 993.977 275.213 991.28 271.506 989.211C270.486 988.643 269.246 988.252 267.992 987.857C266.14 987.274 264.257 986.681 263.006 985.489C260.292 982.903 261.155 978.846 264.506 978.128L264.437 978.005C262.864 975.19 259.176 968.589 256.506 973.128L252.506 972.128V970.128L256.506 969.128L228.506 930.128L245.506 948.128C243.801 941.283 234.825 929.44 227.506 929.128L226.506 928.128C226.849 924.597 226.117 922.819 222.506 922.128L220.506 918.128C219.006 910.899 213.004 902.454 207.444 894.632C204.536 890.539 201.748 886.617 199.79 883.128C197.062 878.269 194.309 873.447 191.565 868.639C177.048 843.206 162.757 818.17 153.506 790.128H154.506L165.506 804.128C164.679 798.019 162.479 792.332 160.278 786.642C158.686 782.525 157.093 778.407 156.02 774.128C154.622 768.556 153.917 761.882 153.182 754.932C151.641 740.347 149.971 724.543 141.506 715.128L142.506 703.128H143.506L146.506 709.128Z" fill="#B18272"/>
<path d="M573.347 335.334L534.431 347.674L524.703 370.403C524.703 370.403 524.056 372.024 523.407 373.323C453.361 534.053 448.173 546.718 445.903 556.459C442.984 570.422 444.607 577.566 449.147 583.086C453.363 587.631 458.874 590.555 464.063 590.555H503.627L516.271 562.303H486.763C480.602 562.303 478.655 560.679 479.303 557.757C479.627 555.809 480.278 553.537 480.927 551.589C492.926 523.339 505.247 494.764 505.247 494.764L510.759 481.775L519.839 460.347L546.431 398.003L558.755 369.754L573.347 335.334ZM623.552 418.133L587.232 423.656L567.124 469.114H541.184L531.128 497.687L556.1 498.011C556.1 498.011 543.127 526.912 530.48 555.486C523.021 572.046 528.209 584.058 545.072 589.578C547.018 590.227 548.966 590.555 550.912 590.555H588.528L600.528 563.929C600.528 563.929 583.987 564.253 567.772 564.578C566.799 564.578 566.153 564.578 565.18 564.253C563.559 563.928 562.584 561.98 563.232 560.032L590.8 498.66H615.768L628.74 469.114H602.148L623.552 418.133ZM699.685 462.456C687.301 462.532 672.807 467.47 658.315 478.855C652.478 483.401 646.968 489.571 642.103 496.39C611.945 540.55 619.078 575.942 647.291 591.528C669.992 603.867 701.446 596.399 725.12 564.253C733.875 552.239 738.414 541.197 740.036 529.833L753.98 526.585L765.008 501.584H759.172C753.334 500.935 747.496 499.635 741.983 497.687C741.659 496.389 741.336 495.089 740.688 493.79C735.175 477.23 730.309 471.387 715.068 465.217C710.507 463.391 705.315 462.421 699.685 462.456H699.685ZM421.931 466.42C411.49 466.434 400.26 467.814 387.492 470.736C373.223 473.984 361.872 478.53 351.82 484.05C336.254 492.817 324.903 502.232 316.471 512.298C305.446 525.611 299.282 537.628 296.687 549.967C290.526 577.891 305.122 594.448 324.579 594.448C344.037 594.773 357.978 589.578 369.004 579.837C369.976 581.786 371.274 583.733 372.896 585.356C376.787 589.253 379.382 590.231 381.652 590.231H417.324L429 564.253H414.08C410.512 563.929 406.947 563.604 403.38 562.955C399.164 561.981 396.571 555.811 401.112 546.069C403.381 540.874 405.976 535.352 405.976 535.352L408.892 529.184L417.324 512.298C414.081 511.648 410.839 511.325 407.272 511.325C385.869 511.974 383.273 513.923 377.112 529.184C376.463 531.132 375.816 533.079 374.843 535.027C374.195 536.976 373.544 538.927 372.571 540.875C364.788 559.383 363.168 561.007 348.575 562.955C345.333 563.28 342.09 563.604 339.171 563.28C333.01 563.28 327.822 556.133 329.443 548.341C331.713 538.599 338.197 529.51 359.275 513.924C369.004 506.456 380.356 501.259 393.327 498.011C404.353 495.089 415.377 494.438 426.728 495.412C426.728 495.412 438.077 477.232 445.212 468.79C437.692 467.227 430.051 466.409 421.931 466.42H421.931ZM694.635 491.844C693.987 493.467 693.34 495.415 692.692 497.363C689.449 512.949 693.664 521.389 706.96 526.909C708.257 527.559 709.554 528.21 711.176 528.535C709.879 538.926 705.664 547.043 695.936 556.135C691.72 560.031 687.503 563.278 683.612 565.226C668.694 573.019 654.75 566.202 652.156 554.512C650.534 548.018 651.181 541.522 654.099 530.482C655.396 525.936 657.344 521.39 660.911 516.195C671.289 500.934 681.664 494.117 694.635 491.844V491.844Z" fill="#B18272"/>
<path d="M826.442 549.834L787.526 562.174L777.798 584.903C777.798 584.903 777.15 586.524 776.502 587.823C706.455 748.553 701.264 761.218 698.994 770.959C696.075 784.921 697.698 792.065 702.238 797.585C706.453 802.131 711.965 805.055 717.154 805.055H756.718L769.366 776.803H739.854C733.692 776.803 731.749 775.179 732.398 772.257C732.722 770.309 733.369 768.037 734.018 766.089C746.016 737.839 758.342 709.264 758.342 709.264L763.854 696.275L772.934 674.847L799.526 612.503L811.846 584.254L826.442 549.834ZM503.627 662.183L445.903 729.073L470.875 740.436C470.875 740.436 483.844 724.2 492.275 718.031C493.897 721.278 495.195 724.852 496.167 728.424C500.059 745.958 496.493 759.27 489.683 766.089C481.9 773.882 474.116 777.127 468.603 777.127C450.443 776.802 432.283 776.478 432.283 776.478L419.635 805.055H471.847C476.063 805.055 480.602 804.403 486.439 802.78C518.22 793.688 538.325 756.998 522.435 706.019C520.814 701.148 519.193 696.275 516.923 691.729L521.787 684.587C521.787 684.587 524.057 681.339 526.651 677.767C530.543 672.572 534.436 667.378 538.327 662.183L503.627 662.183ZM632.921 676.956C620.537 677.032 606.047 681.97 591.555 693.355C585.718 697.901 580.203 704.071 575.339 710.89C545.18 755.05 552.314 790.442 580.527 806.028C603.227 818.367 634.686 810.899 658.359 778.753C667.115 766.739 671.654 755.697 673.275 744.333L687.219 741.085L698.247 716.084H692.407C686.57 715.435 680.736 714.135 675.223 712.187C674.899 710.889 674.571 709.589 673.923 708.29C668.41 691.73 663.548 685.887 648.307 679.717C643.747 677.891 638.55 676.921 632.921 676.956H632.921ZM860.937 676.956C848.552 677.032 834.062 681.97 819.571 693.355C813.734 697.901 808.219 704.071 803.355 710.89C773.196 755.05 780.33 790.442 808.543 806.028C831.243 818.367 862.702 810.899 886.375 778.753C895.131 766.739 899.669 755.697 901.291 744.333L915.235 741.085L926.259 716.084H920.423C914.586 715.435 908.748 714.135 903.235 712.187C902.911 710.889 902.587 709.589 901.939 708.29C896.426 691.73 891.56 685.887 876.319 679.717C871.758 677.891 866.566 676.921 860.936 676.956H860.937ZM627.875 706.344C627.226 707.967 626.58 709.915 625.931 711.863C622.688 727.449 626.903 735.889 640.199 741.409C641.496 742.058 642.794 742.71 644.415 743.035C643.118 753.426 638.9 761.543 629.171 770.635C624.955 774.531 620.742 777.778 616.851 779.726C601.934 787.519 587.989 780.702 585.395 769.012C583.773 762.518 584.42 756.022 587.339 744.982C588.636 740.436 590.584 735.89 594.151 730.695C604.528 715.434 614.903 708.617 627.875 706.344V706.344ZM855.891 706.344C855.242 707.967 854.592 709.915 853.943 711.863C850.7 727.449 854.919 735.889 868.215 741.409C869.512 742.058 870.81 742.71 872.431 743.035C871.134 753.426 866.916 761.543 857.187 770.635C852.971 774.531 848.754 777.778 844.863 779.726C829.946 787.519 816.001 780.702 813.407 769.012C811.785 762.518 812.436 756.022 815.355 744.982C816.652 740.436 818.595 735.89 822.163 730.695C832.54 715.434 842.919 708.617 855.891 706.344V706.344Z" fill="#B18272"/>
</svg>
