<svg width="1068" height="807" viewBox="0 0 1068 807" fill="none" xmlns="http://www.w3.org/2000/svg">
<path d="M470.325 0.51416L404.507 21.3843L388.054 59.8257C388.054 59.8257 386.959 62.5679 385.862 64.7644C267.395 336.603 258.62 358.023 254.781 374.498C249.845 398.113 252.59 410.195 260.268 419.531C267.398 427.219 276.72 432.164 285.495 432.164H352.409L373.793 384.381H323.887C313.466 384.381 310.173 381.635 311.27 376.693C311.818 373.398 312.92 369.556 314.017 366.261C334.31 318.483 355.149 270.154 355.149 270.154L364.471 248.186L379.828 211.946L424.802 106.505L445.646 58.7287L470.325 0.51416ZM555.235 140.55L493.808 149.891L459.8 226.774H415.928L398.921 275.099L441.155 275.647C441.155 275.647 419.215 324.525 397.825 372.852C385.21 400.86 393.984 421.175 422.504 430.511C425.794 431.609 429.09 432.163 432.381 432.163H496L516.295 387.131C516.295 387.131 488.319 387.679 460.896 388.229C459.25 388.229 458.157 388.229 456.512 387.68C453.77 387.131 452.121 383.835 453.218 380.54L499.843 276.744H542.071L564.01 226.774H519.035L555.235 140.55ZM683.998 215.512C663.053 215.642 638.539 223.993 614.03 243.248C604.157 250.936 594.837 261.371 586.611 272.904C535.604 347.591 547.669 407.45 595.385 433.81C633.777 454.678 686.976 442.048 727.014 387.68C741.822 367.361 749.499 348.686 752.241 329.466L775.824 323.972L794.476 281.689H784.605C774.733 280.591 764.859 278.394 755.536 275.099C754.987 272.902 754.44 270.704 753.344 268.508C744.02 240.5 735.791 230.617 710.013 220.183C702.301 217.094 693.518 215.454 683.998 215.512H683.998ZM214.238 222.217C196.579 222.24 177.587 224.575 155.991 229.517C131.859 235.009 112.662 242.698 95.6599 252.034C69.3337 266.861 50.1366 282.785 35.8765 299.81C17.2289 322.326 6.80395 342.649 2.41627 363.518C-8.00452 410.746 16.6816 438.748 49.5893 438.748C82.497 439.297 106.075 430.512 124.723 414.037C126.368 417.332 128.563 420.626 131.305 423.372C137.887 429.962 142.275 431.615 146.114 431.615H206.446L226.193 387.68H200.959C194.926 387.131 188.895 386.583 182.862 385.485C175.732 383.837 171.348 373.401 179.026 356.926C182.865 348.14 187.253 338.8 187.253 338.8L192.185 328.368L206.446 299.809C200.961 298.711 195.478 298.164 189.445 298.164C153.246 299.262 148.857 302.558 138.436 328.368C137.339 331.663 136.245 334.956 134.6 338.251C133.503 341.546 132.403 344.846 130.757 348.141C117.594 379.443 114.854 382.19 90.1732 385.485C84.6886 386.034 79.2045 386.583 74.2683 386.034C63.8476 386.034 55.0732 373.947 57.8155 360.767C61.6546 344.292 72.6198 328.92 108.27 302.56C124.724 289.929 143.923 281.139 165.861 275.647C184.509 270.704 203.154 269.604 222.35 271.251C222.35 271.251 241.546 240.504 253.612 226.225C240.894 223.582 227.972 222.199 214.237 222.217H214.238ZM675.457 265.216C674.36 267.962 673.266 271.255 672.169 274.55C666.685 300.91 673.814 315.185 696.3 324.521C698.494 325.619 700.689 326.721 703.431 327.271C701.237 344.844 694.11 358.573 677.656 373.949C670.526 380.539 663.394 386.031 656.812 389.326C631.583 402.506 607.999 390.976 603.612 371.206C600.869 360.222 601.963 349.235 606.899 330.563C609.093 322.875 612.387 315.187 618.42 306.401C635.971 280.59 653.519 269.06 675.457 265.216V265.216Z" fill="black"/>
<path d="M898.378 363.293L832.56 384.164L816.107 422.605C816.107 422.605 815.012 425.347 813.915 427.543C695.447 699.382 686.666 720.802 682.827 737.277C677.891 760.892 680.636 772.974 688.314 782.31C695.444 789.998 704.766 794.943 713.541 794.943H780.455L801.846 747.161H751.933C741.512 747.161 738.226 744.414 739.323 739.472C739.871 736.177 740.966 732.336 742.063 729.04C762.356 681.263 783.201 632.933 783.201 632.933L792.524 610.966L807.88 574.726L852.855 469.284L873.692 421.508L898.378 363.293ZM352.408 553.307L254.781 666.436L297.016 685.654C297.016 685.654 318.949 658.195 333.209 647.761C335.952 653.253 338.146 659.298 339.791 665.339C346.373 694.994 340.343 717.508 328.825 729.04C315.662 742.221 302.497 747.709 293.173 747.709C262.459 747.16 231.746 746.612 231.746 746.612L210.354 794.943H298.66C305.79 794.943 313.466 793.841 323.339 791.095C377.088 775.718 411.093 713.665 384.218 627.446C381.476 619.208 378.735 610.966 374.896 603.277L383.122 591.199C383.122 591.199 386.961 585.704 391.348 579.663C397.93 570.877 404.514 562.093 411.096 553.306L352.408 553.307ZM571.08 578.292C550.135 578.421 525.628 586.772 501.118 606.027C491.246 613.716 481.92 624.151 473.693 635.683C422.686 710.37 434.751 770.229 482.467 796.589C520.859 817.457 574.065 804.827 614.103 750.459C628.911 730.14 636.588 711.466 639.33 692.245L662.913 686.751L681.564 644.469H671.687C661.815 643.37 651.948 641.173 642.624 637.878C642.076 635.681 641.522 633.483 640.426 631.287C631.102 603.279 622.879 593.397 597.102 582.962C589.389 579.873 580.6 578.234 571.079 578.292H571.08ZM956.718 578.292C935.773 578.421 911.266 586.772 886.757 606.027C876.884 613.716 867.558 624.151 859.331 635.683C808.324 710.37 820.389 770.229 868.105 796.589C906.498 817.457 959.703 804.827 999.741 750.459C1014.55 730.14 1022.23 711.466 1024.97 692.245L1048.55 686.751L1067.2 644.469H1057.33C1047.45 643.37 1037.58 641.173 1028.26 637.878C1027.71 635.681 1027.16 633.483 1026.06 631.287C1016.74 603.279 1008.51 593.397 982.733 582.962C975.02 579.873 966.238 578.234 956.718 578.292H956.718ZM562.546 627.995C561.449 630.741 560.355 634.034 559.258 637.329C553.773 663.689 560.902 677.964 583.389 687.3C585.583 688.398 587.778 689.501 590.52 690.05C588.326 707.623 581.192 721.352 564.738 736.729C557.608 743.319 550.483 748.81 543.901 752.105C518.672 765.286 495.088 753.755 490.7 733.985C487.958 723.002 489.052 712.014 493.988 693.342C496.182 685.654 499.476 677.967 505.509 669.18C523.06 643.369 540.607 631.839 562.546 627.995V627.995ZM948.184 627.995C947.087 630.741 945.987 634.034 944.89 637.329C939.405 663.689 946.54 677.964 969.027 687.3C971.221 688.398 973.416 689.501 976.158 690.05C973.964 707.623 966.83 721.352 950.376 736.729C943.246 743.319 936.114 748.81 929.533 752.105C904.303 765.286 880.719 753.755 876.332 733.985C873.589 723.002 874.69 712.014 879.626 693.342C881.82 685.654 885.107 677.967 891.14 669.18C908.691 643.369 926.245 631.839 948.184 627.995V627.995Z" fill="black"/>
</svg>
