<svg width="1195" height="1195" viewBox="0 0 1195 1195" fill="none" xmlns="http://www.w3.org/2000/svg">
<circle cx="597.743" cy="597.154" r="596.968" fill="#F3F388"/>
<path fill-rule="evenodd" clip-rule="evenodd" d="M464.031 145.128V147.128L496.031 135.128L495.031 138.128L503.031 136.128L486.031 151.128L493.031 152.128V153.128L457.031 167.128L454.031 180.128L459.031 179.128V180.128C450.36 184.763 441.292 188.337 432.224 191.911C420.18 196.659 408.138 201.406 397.031 208.634C389.096 213.798 381.377 219.896 373.593 226.046C358.358 238.081 342.874 250.313 325.031 256.128L324.031 251.128V250.128C325.433 248.607 327.085 246.962 328.839 245.216C335.817 238.269 344.388 229.737 345.031 221.128C349.181 219.636 350.963 216.018 352.801 212.286C353.493 210.881 354.193 209.459 355.031 208.128L331.031 220.128C333.862 211.824 341.994 207.577 349.908 203.443C353.909 201.352 357.854 199.291 361.031 196.75C364.061 194.326 366.823 191.608 369.584 188.891L369.585 188.891C373.201 185.332 376.817 181.774 381.035 178.875C404.395 162.819 436.343 150.917 464.031 145.128ZM564.031 140.128V139.128L619.031 140.128L618.031 142.128C623.554 142.128 629.024 141.808 634.487 141.49C645.246 140.861 655.977 140.235 667.031 142.048C667.82 142.177 668.627 142.295 669.443 142.414L669.444 142.414C675.008 143.224 680.975 144.093 684.031 149.128L667.031 154.128V153.128L672.031 152.128L664.031 149.128V148.128L667.031 146.128C665.235 146.114 663.094 145.921 660.801 145.714C653.795 145.084 645.372 144.325 641.031 148.128L648.031 147.128C646.084 153.138 640.514 152.318 640.031 146.128C638.134 146.047 636.09 145.813 633.982 145.572C627.037 144.779 619.397 143.906 614.031 148.128H613.031H607.031L604.031 147.128L608.031 151.128L564.031 157.128V156.128L572.031 154.128L571.031 150.128L579.031 143.128L574.031 144.128L576.031 141.128L564.031 140.128ZM531.031 148.128V149.128L571.031 144.128C562.641 140.608 551.741 143.317 541.898 145.764C538.042 146.722 534.349 147.641 531.031 148.128ZM773.031 154.128L777.031 152.128L786.031 159.128V160.128L773.031 155.128V154.128ZM744.031 154.128V155.128L750.031 157.128L749.031 160.128L767.031 164.128V165.128L758.031 164.128V165.128L795.031 177.128L794.031 173.128C794.911 173.587 796.47 174.225 798.353 174.996C805.652 177.986 817.808 182.964 814.031 187.128L835.031 195.128V191.128L825.031 184.128L828.031 185.128V184.128C826.027 183.207 824.076 182.325 822.162 181.46C812.723 177.191 804.216 173.344 794.86 167.334C791.643 165.267 788.551 163.691 786.031 167.128C783.016 166.267 760.514 159.815 766.031 157.128C759.974 152.813 751.074 153.243 744.031 154.128ZM891.031 225.128L905.031 236.128C902.87 229.824 897.451 226.287 891.031 225.128ZM895.031 233.128L897.031 236.128L891.031 238.128L907.031 250.128L905.031 247.128L910.031 248.128L905.031 242.128C909.559 242.675 913.928 246.169 916.031 250.128L911.031 248.128V249.128L917.031 251.128V252.128H911.031C912.596 255.34 915.191 257.582 917.812 259.847C919.705 261.484 921.613 263.133 923.155 265.167C924.88 267.442 926.531 269.745 928.177 272.04L928.178 272.042L928.179 272.043L928.18 272.044L928.18 272.045L928.181 272.046C932.449 277.998 936.677 283.894 942.028 289.089C949.078 295.934 956.773 302.439 964.522 308.99L964.523 308.991C981.006 322.926 997.735 337.069 1009.03 355.128C1003.23 360.676 1022.59 375.8 1027.03 379.128L1014.03 357.128L1029.03 366.128L1024.03 358.128L1036.03 368.128L1025.03 343.128C1021.5 344.412 1019.92 342.174 1018.19 339.729C1017.43 338.658 1016.64 337.549 1015.65 336.677C1013.09 334.42 1010.45 332.331 1007.8 330.24C1003.8 327.071 999.785 323.898 996.032 320.128C988.34 312.402 981.16 304.043 973.975 295.678L973.975 295.677L973.974 295.677C961.84 281.55 949.691 267.405 935.031 256.258C933.665 255.22 932.07 253.832 930.328 252.314C924.222 246.998 916.299 240.101 910.031 241.128L909.031 237.128L904.031 241.128C901.182 239.581 899.372 238.506 900.031 235.128L895.031 233.128ZM257.443 273.91L271.031 258.128C273.839 263.808 266.241 271.286 261.449 276.004C260.699 276.742 260.017 277.413 259.455 277.998C255.343 282.283 251.006 286.433 246.655 290.596C235.293 301.468 223.834 312.433 216.031 326.128L222.031 325.128C217.744 334.603 212.58 344.856 204.031 351.128L206.031 340.128L194.031 359.128L193.031 356.128C185.084 365.835 178.813 379.152 175.128 391.128C174.433 393.389 174.058 395.508 173.692 397.579C173.073 401.081 172.478 404.447 170.398 408.128C168.428 411.614 165.529 414.629 162.632 417.642C157.966 422.493 153.308 427.337 152.55 434.128C152.236 436.937 153.331 439.305 154.43 441.681C155.377 443.729 156.327 445.782 156.379 448.128C156.516 454.303 154.633 460.442 152.767 466.523C151.572 470.417 150.385 474.287 149.739 478.128C149.198 481.352 148.939 484.552 148.683 487.72C148.033 495.767 147.4 503.601 142.192 511.066C139.676 514.672 132.271 517.121 129.21 512.694C126.233 508.388 127.343 502.277 128.405 496.425C129.079 492.714 129.734 489.106 129.316 486.128C128.667 481.506 125.847 477.545 123.053 473.62C118.871 467.746 114.744 461.95 118.031 454.128L121.031 455.128C121.816 453.45 122.881 451.77 123.96 450.07C125.783 447.194 127.645 444.259 128.253 441.167C128.487 439.978 128.242 438.82 128 437.675C127.687 436.197 127.378 434.738 128.112 433.258C129.053 431.36 130.433 429.824 131.821 428.279C133.465 426.448 135.121 424.605 136.076 422.128C136.751 420.378 136.993 418.449 137.233 416.532C137.501 414.398 137.767 412.277 138.627 410.427C139.5 408.547 141.045 406.955 142.625 405.327C144.174 403.73 145.756 402.099 146.772 400.128C146.997 399.691 147.236 399.236 147.482 398.766L147.482 398.765C150.607 392.802 154.988 384.44 150.031 379.128C150.301 378.278 150.572 377.423 150.844 376.566L150.86 376.516C158.513 352.397 166.968 325.754 180.24 304.128C182.164 300.993 194.897 282.523 199.003 286.929C200.676 288.725 200.004 292.438 199.465 295.414C199.278 296.444 199.108 297.385 199.056 298.128C198.589 304.807 196.312 311.059 194.033 317.316C191.8 323.447 189.566 329.583 189.031 336.128C201.893 326.643 218.455 314.139 228.031 301.128L225.031 300.128L243.031 280.128L247.031 283.128L257.443 273.91ZM1066.03 497.128L1068.03 495.128C1072.56 504.839 1076.96 519.867 1073.03 530.128H1077.03L1074.03 493.128L1079.03 497.128H1080.03L1080.03 496.61C1079.97 475.083 1079.9 447.82 1066.59 430.128C1059.49 420.688 1049.91 410.458 1039.03 420.128C1038.97 417.78 1035.87 407.516 1032.36 413.718C1031.32 415.547 1033.14 417.585 1035.03 419.705C1036.62 421.485 1038.26 423.323 1038.31 425.143C1038.63 438.274 1043.79 446.797 1049.56 456.344C1051.95 460.297 1054.44 464.425 1056.74 469.128C1059.7 475.177 1061.63 481.972 1063.52 488.644L1063.52 488.645C1064.34 491.519 1065.15 494.37 1066.03 497.128ZM116.031 560.128L119.031 550.128L121.321 586.128L127.861 619.128L128.031 684.128H127.031L126.031 681.128H125.031L128.031 704.128L124.031 697.128C125.864 694.268 124.849 692.08 123.746 689.703C123.085 688.278 122.393 686.786 122.264 685.039C122.091 682.684 122.17 680.44 122.249 678.226C122.39 674.258 122.528 670.384 121.199 666.128C120.208 662.951 118.504 660.271 116.81 657.608C115.29 655.217 113.777 652.839 112.796 650.124C107.157 634.53 107.84 619.803 108.551 604.485C108.77 599.769 108.991 594.998 109.031 590.128L105.031 594.128H104.031L115.031 551.128H116.031V560.128ZM1073.03 604.128L1073.02 623.038L1069.23 632.132L1067.15 670.128L1054.47 690.128L1051.09 707.128L1040.66 722.128L1030.11 747.128L1027.27 769.128L1021.4 781.128L1021.03 799.128L1025.03 797.128C1028.59 808.448 1025.07 818.192 1016.03 826.128C1014.72 820.019 1008.8 827.74 1006.19 831.14C1005.97 831.42 1005.78 831.671 1005.62 831.882C1005.55 831.972 1005.48 832.054 1005.42 832.128C1002.9 835.252 1000.24 838.296 997.576 841.347C991.052 848.809 984.491 856.314 979.92 865.128C976.887 870.976 973.578 877.737 981.031 881.128L980.031 884.128C991.388 877.559 1005.91 863.423 1011.03 851.128L1014.03 852.128L1028.89 820.128L1037.07 797.552L1052.03 771.128L1046.03 778.128C1046.96 771.874 1049.26 765.409 1054.03 761.128C1052.86 752.755 1056.8 746.946 1060.87 740.94C1062.96 737.848 1065.09 734.703 1066.58 731.128C1072.38 717.208 1074.9 704.17 1077.55 690.508C1078.59 685.173 1079.64 679.743 1080.91 674.128C1081.35 672.209 1082.36 669.685 1083.46 666.937L1083.46 666.936C1087.06 657.923 1091.63 646.506 1080.03 646.128L1077.03 664.128H1076.03C1076.03 659.617 1076.29 654.598 1076.55 649.348C1077.34 633.921 1078.22 616.503 1073.03 604.128ZM147.031 709.128L144.031 694.128H146.031L149.031 703.128L150.031 701.128H151.031C151.917 707.99 154.725 714.228 157.551 720.505C159.122 723.996 160.698 727.499 161.953 731.128C163.866 736.66 165.12 742.453 166.373 748.243C167.917 755.374 169.459 762.501 172.23 769.128C176.647 779.692 182.664 789.745 188.666 799.776C193.289 807.5 197.903 815.21 201.772 823.128C204.354 828.414 205.518 833.889 206.682 839.365C207.737 844.332 208.793 849.3 210.907 854.128C215.109 863.726 221.062 872.2 227.002 880.655C230.219 885.234 233.432 889.808 236.361 894.552C238.657 898.271 240.662 902.098 242.661 905.916C246.085 912.454 249.494 918.964 254.326 924.842C269.545 943.361 290.52 962.308 310.121 975.993C312.352 977.551 315.501 979.128 318.87 980.815C326.55 984.662 335.369 989.079 337.031 995.128C348.234 995.176 357.182 1004.05 365.696 1012.49C370.173 1016.93 374.53 1021.25 379.031 1024.1C392.295 1032.51 407.54 1038.37 422.634 1044.17C431.283 1047.49 439.882 1050.79 448.031 1054.55C448.809 1054.9 449.64 1055.28 450.503 1055.66C454.73 1057.55 459.723 1059.79 462.948 1062.43C464.048 1063.34 464.876 1064.46 465.697 1065.56C466.892 1067.18 468.073 1068.78 470.059 1069.66C473.299 1071.09 475.633 1069.94 478.044 1068.75C480.349 1067.62 482.724 1066.44 486.031 1067.46C487.828 1068.01 489.357 1069.07 490.892 1070.14C492.494 1071.24 494.103 1072.36 496.031 1072.91C498.954 1073.74 501.773 1073.51 504.595 1073.28C507.048 1073.08 509.504 1072.88 512.031 1073.38C516.367 1074.23 520.681 1075.13 524.988 1076.02C538.559 1078.85 552.068 1081.66 566.031 1083.05C581.615 1084.6 597.813 1084.1 613.836 1083.61C621.64 1083.37 629.401 1083.13 637.031 1083.13C638.085 1083.13 639.165 1083.13 640.269 1083.13C659.799 1083.17 686.579 1083.21 703.003 1073.05C704.93 1071.85 705.465 1070.03 706.015 1068.16C706.641 1066.02 707.288 1063.82 710.031 1062.41C714.067 1060.33 732.174 1057.15 733.031 1061.13L728.031 1062.13V1063.13C735.729 1063.7 743.015 1060.62 750.188 1057.6C752.813 1056.49 755.422 1055.39 758.031 1054.47L759.26 1054.04C783.686 1045.48 809.885 1036.3 832.031 1022.92C835.651 1020.74 839.352 1017.66 843.153 1014.5C850.378 1008.49 857.964 1002.18 866.031 1001.13L860.031 994.128C864.096 986.46 868.08 986.982 873.27 987.661C875.322 987.93 877.562 988.223 880.07 988.044C885.257 987.675 890.961 983.919 895.031 980.97C923.123 960.613 956.367 934.918 976.031 906.128H977.031V911.128L974.031 912.128V913.128C977.056 916.313 972.577 920.78 969.726 923.623C969.347 924.001 968.996 924.351 968.696 924.664C966.487 926.975 964.34 929.455 962.174 931.957C956.187 938.872 950.051 945.959 942.031 950.128C941.801 955.899 936.837 959.905 932.318 963.552C931.165 964.483 930.041 965.39 929.031 966.297C925.517 969.457 922.037 972.67 918.555 975.885C908.689 984.995 898.801 994.125 888.03 1002.13C875.638 1011.34 862.497 1019.07 849.283 1026.85C844.531 1029.65 839.77 1032.45 835.031 1035.33C832.399 1036.93 829.979 1038.94 827.567 1040.93C824.811 1043.22 822.067 1045.49 819.031 1047.14C816.61 1048.45 813.857 1049.06 811.092 1049.67C808.676 1050.2 806.252 1050.74 804.031 1051.75C801.128 1053.07 798.234 1054.39 795.345 1055.71C777.027 1064.07 758.911 1072.34 740.031 1079.59C735.017 1081.52 730.065 1083.57 725.121 1085.63C710.81 1091.58 696.559 1097.5 681.031 1100.13L685.031 1105.13V1107.13C670.915 1111.13 656.834 1111.6 642.725 1112.07C632.848 1112.4 622.957 1112.73 613.031 1114.28C610.299 1114.7 607.833 1117.1 605.398 1119.47C602.46 1122.33 599.569 1125.14 596.316 1124.38C591.93 1123.34 588.267 1119.62 584.667 1115.95C581.841 1113.08 579.055 1110.24 575.988 1108.78C572.46 1107.1 568.29 1106.47 564.106 1105.85C557.691 1104.89 551.244 1103.92 547.031 1099.13L550.031 1098.13V1096.13L523.031 1092.13L524.031 1095.13C520.851 1095.13 516.891 1095.22 517.031 1099.13L506.976 1092.27L484.031 1087.13V1086.13L488.031 1085.13C484.682 1079.34 474.662 1078.05 466.126 1076.96C462.671 1076.52 459.459 1076.1 457.031 1075.44C443.398 1071.69 429.903 1065.94 416.646 1060.29C412.078 1058.35 407.539 1056.41 403.031 1054.57C399.897 1053.3 396.573 1052.53 393.275 1051.76C388.602 1050.68 383.983 1049.61 380.031 1047.13L381.031 1044.13L398.031 1049.13V1048.13C395.528 1046.96 393.126 1045.78 390.772 1044.62C381.206 1039.91 372.453 1035.6 361.031 1034.13L367.031 1044.13C339.575 1034.32 310.366 1018.15 287.031 1000.49C285.413 999.265 283.843 997.969 282.271 996.671C279.007 993.977 275.738 991.28 272.031 989.211C271.011 988.643 269.771 988.252 268.517 987.857C266.665 987.274 264.782 986.681 263.531 985.489C260.817 982.903 261.68 978.846 265.031 978.128L264.962 978.005C263.389 975.19 259.702 968.589 257.031 973.128L253.031 972.128V970.128L257.031 969.128L229.031 930.128L246.031 948.128C244.326 941.283 235.35 929.44 228.031 929.128L227.031 928.128C227.374 924.597 226.642 922.819 223.031 922.128L221.031 918.128C219.531 910.899 213.529 902.454 207.97 894.632C205.061 890.539 202.274 886.617 200.315 883.128C197.587 878.269 194.835 873.447 192.09 868.639C177.573 843.206 163.283 818.17 154.031 790.128H155.031L166.031 804.128C165.205 798.019 163.004 792.332 160.804 786.642C159.211 782.525 157.618 778.407 156.545 774.128C155.148 768.556 154.442 761.882 153.708 754.932C152.166 740.347 150.496 724.543 142.031 715.128L143.031 703.128H144.031L147.031 709.128Z" fill="#B18272"/>
<path d="M573.873 335.334L534.957 347.674L525.229 370.403C525.229 370.403 524.581 372.024 523.933 373.323C453.886 534.053 448.698 546.718 446.428 556.459C443.51 570.422 445.133 577.566 449.672 583.086C453.888 587.631 459.4 590.555 464.588 590.555H504.153L516.797 562.303H487.289C481.127 562.303 479.18 560.679 479.829 557.757C480.153 555.809 480.804 553.537 481.453 551.589C493.451 523.339 505.773 494.764 505.773 494.764L511.285 481.775L520.365 460.347L546.957 398.003L559.281 369.754L573.873 335.334ZM624.078 418.133L587.757 423.656L567.649 469.114H541.709L531.653 497.687L556.625 498.011C556.625 498.011 543.653 526.912 531.005 555.486C523.547 572.046 528.735 584.058 545.597 589.578C547.543 590.227 549.492 590.555 551.437 590.555H589.053L601.054 563.929C601.054 563.929 584.512 564.253 568.297 564.578C567.325 564.578 566.678 564.578 565.706 564.253C564.084 563.928 563.109 561.98 563.758 560.032L591.326 498.66H616.294L629.266 469.114H602.674L624.078 418.133ZM700.211 462.456C687.827 462.532 673.332 467.47 658.841 478.855C653.004 483.401 647.493 489.571 642.629 496.39C612.47 540.55 619.604 575.942 647.817 591.528C670.517 603.867 701.972 596.399 725.645 564.253C734.401 552.239 738.94 541.197 740.561 529.833L754.505 526.585L765.533 501.584H759.697C753.86 500.935 748.022 499.635 742.509 497.687C742.185 496.389 741.861 495.089 741.213 493.79C735.7 477.23 730.835 471.387 715.593 465.217C711.033 463.391 705.84 462.421 700.211 462.456H700.211ZM422.456 466.42C412.015 466.434 400.786 467.814 388.017 470.736C373.748 473.984 362.398 478.53 352.345 484.05C336.779 492.817 325.428 502.232 316.997 512.298C305.971 525.611 299.807 537.628 297.213 549.967C291.051 577.891 305.648 594.448 325.105 594.448C344.562 594.773 358.503 589.578 369.529 579.837C370.502 581.786 371.799 583.733 373.421 585.356C377.312 589.253 379.907 590.231 382.177 590.231H417.849L429.525 564.253H414.605C411.038 563.929 407.472 563.604 403.905 562.955C399.689 561.981 397.097 555.811 401.637 546.069C403.907 540.874 406.501 535.352 406.501 535.352L409.417 529.184L417.849 512.298C414.606 511.648 411.364 511.325 407.797 511.325C386.394 511.974 383.798 513.923 377.637 529.184C376.988 531.132 376.342 533.079 375.369 535.027C374.72 536.976 374.07 538.927 373.097 540.875C365.314 559.383 363.694 561.007 349.101 562.955C345.858 563.28 342.615 563.604 339.697 563.28C333.535 563.28 328.347 556.133 329.969 548.341C332.239 538.599 338.722 529.51 359.801 513.924C369.529 506.456 380.881 501.259 393.853 498.011C404.879 495.089 415.903 494.438 427.253 495.412C427.253 495.412 438.603 477.232 445.737 468.79C438.218 467.227 430.577 466.409 422.456 466.42H422.456ZM695.161 491.844C694.512 493.467 693.865 495.415 693.217 497.363C689.974 512.949 694.189 521.389 707.485 526.909C708.782 527.559 710.08 528.21 711.701 528.535C710.404 538.926 706.19 547.043 696.461 556.135C692.245 560.031 688.028 563.278 684.137 565.226C669.22 573.019 655.275 566.202 652.681 554.512C651.059 548.018 651.706 541.522 654.625 530.482C655.922 525.936 657.87 521.39 661.437 516.195C671.814 500.934 682.189 494.117 695.161 491.844V491.844Z" fill="#B18272"/>
<path d="M826.967 549.834L788.051 562.174L778.323 584.903C778.323 584.903 777.676 586.524 777.027 587.823C706.981 748.553 701.789 761.218 699.519 770.959C696.6 784.921 698.223 792.065 702.763 797.585C706.979 802.131 712.491 805.055 717.679 805.055H757.243L769.891 776.803H740.379C734.218 776.803 732.275 775.179 732.923 772.257C733.247 770.309 733.895 768.037 734.543 766.089C746.542 737.839 758.867 709.264 758.867 709.264L764.379 696.275L773.459 674.847L800.051 612.503L812.371 584.254L826.967 549.834ZM504.153 662.183L446.429 729.073L471.401 740.436C471.401 740.436 484.369 724.2 492.801 718.031C494.422 721.278 495.72 724.852 496.693 728.424C500.584 745.958 497.019 759.27 490.209 766.089C482.426 773.882 474.642 777.127 469.129 777.127C450.969 776.802 432.809 776.478 432.809 776.478L420.161 805.055H472.373C476.588 805.055 481.128 804.403 486.965 802.78C518.745 793.688 538.851 756.998 522.961 706.019C521.339 701.148 519.719 696.275 517.449 691.729L522.313 684.587C522.313 684.587 524.582 681.339 527.177 677.767C531.068 672.572 534.961 667.378 538.853 662.183L504.153 662.183ZM633.446 676.956C621.062 677.032 606.572 681.97 592.08 693.355C586.243 697.901 580.729 704.071 575.864 710.89C545.705 755.05 552.839 790.442 581.052 806.028C603.753 818.367 635.211 810.899 658.884 778.753C667.64 766.739 672.179 755.697 673.8 744.333L687.744 741.085L698.772 716.084H692.932C687.095 715.435 681.261 714.135 675.748 712.187C675.424 710.889 675.097 709.589 674.448 708.29C668.935 691.73 664.074 685.887 648.832 679.717C644.272 677.891 639.075 676.921 633.446 676.956H633.446ZM861.462 676.956C849.078 677.032 834.588 681.97 820.096 693.355C814.259 697.901 808.745 704.071 803.88 710.89C773.721 755.05 780.855 790.442 809.068 806.028C831.768 818.367 863.227 810.899 886.9 778.753C895.656 766.739 900.195 755.697 901.816 744.333L915.76 741.085L926.784 716.084H920.948C915.111 715.435 909.273 714.135 903.76 712.187C903.436 710.889 903.112 709.589 902.464 708.29C896.951 691.73 892.086 685.887 876.844 679.717C872.284 677.891 867.091 676.921 861.462 676.956H861.462ZM628.4 706.344C627.752 707.967 627.105 709.915 626.456 711.863C623.214 727.449 627.429 735.889 640.724 741.409C642.022 742.058 643.319 742.71 644.941 743.035C643.643 753.426 639.425 761.543 629.696 770.635C625.481 774.531 621.268 777.778 617.376 779.726C602.459 787.519 588.515 780.702 585.92 769.012C584.299 762.518 584.946 756.022 587.864 744.982C589.161 740.436 591.109 735.89 594.676 730.695C605.054 715.434 615.429 708.617 628.4 706.344V706.344ZM856.416 706.344C855.767 707.967 855.117 709.915 854.468 711.863C851.225 727.449 855.444 735.889 868.74 741.409C870.037 742.058 871.335 742.71 872.956 743.035C871.659 753.426 867.441 761.543 857.712 770.635C853.497 774.531 849.28 777.778 845.388 779.726C830.471 787.519 816.527 780.702 813.932 769.012C812.311 762.518 812.961 756.022 815.88 744.982C817.177 740.436 819.121 735.89 822.688 730.695C833.065 715.434 843.445 708.617 856.416 706.344V706.344Z" fill="#B18272"/>
</svg>
