<svg width="1195" height="1195" viewBox="0 0 1195 1195" fill="none" xmlns="http://www.w3.org/2000/svg">
<circle cx="597.269" cy="597.154" r="596.968" fill="white"/>
<path fill-rule="evenodd" clip-rule="evenodd" d="M463.557 145.128V147.128L495.557 135.128L494.557 138.128L502.557 136.128L485.557 151.128L492.557 152.128V153.128L456.557 167.128L453.557 180.128L458.557 179.128V180.128C449.885 184.763 440.817 188.337 431.749 191.911C419.706 196.659 407.664 201.406 396.557 208.634C388.621 213.798 380.902 219.896 373.118 226.046C357.883 238.081 342.4 250.313 324.557 256.128L323.557 251.128V250.128C324.958 248.607 326.611 246.962 328.364 245.216C335.343 238.269 343.913 229.737 344.557 221.128C348.706 219.636 350.488 216.018 352.326 212.286C353.018 210.881 353.719 209.459 354.557 208.128L330.557 220.128C333.387 211.824 341.519 207.577 349.433 203.443C353.434 201.352 357.38 199.291 360.557 196.75C363.586 194.326 366.348 191.608 369.11 188.891L369.11 188.891C372.726 185.332 376.342 181.774 380.561 178.875C403.921 162.819 435.869 150.917 463.557 145.128ZM563.557 140.128V139.128L618.557 140.128L617.557 142.128C623.08 142.128 628.55 141.808 634.012 141.49C644.771 140.861 655.502 140.235 666.557 142.048C667.345 142.177 668.152 142.295 668.969 142.414L668.969 142.414C674.533 143.224 680.5 144.093 683.557 149.128L666.557 154.128V153.128L671.557 152.128L663.557 149.128V148.128L666.557 146.128C664.76 146.114 662.619 145.921 660.327 145.714C653.32 145.084 644.897 144.325 640.557 148.128L647.557 147.128C645.61 153.138 640.04 152.318 639.557 146.128C637.66 146.047 635.615 145.813 633.507 145.572C626.563 144.779 618.923 143.906 613.557 148.128H612.557H606.557L603.557 147.128L607.557 151.128L563.557 157.128V156.128L571.557 154.128L570.557 150.128L578.557 143.128L573.557 144.128L575.557 141.128L563.557 140.128ZM530.557 148.128V149.128L570.557 144.128C562.166 140.608 551.267 143.317 541.423 145.764C537.568 146.722 533.874 147.641 530.557 148.128ZM772.557 154.128L776.557 152.128L785.557 159.128V160.128L772.557 155.128V154.128ZM743.557 154.128V155.128L749.557 157.128L748.557 160.128L766.557 164.128V165.128L757.557 164.128V165.128L794.557 177.128L793.557 173.128C794.436 173.587 795.996 174.225 797.878 174.996C805.177 177.986 817.333 182.964 813.557 187.128L834.557 195.128V191.128L824.557 184.128L827.557 185.128V184.128C825.552 183.207 823.601 182.325 821.688 181.46C812.248 177.191 803.742 173.344 794.386 167.334C791.169 165.267 788.077 163.691 785.557 167.128C782.542 166.267 760.04 159.815 765.557 157.128C759.5 152.813 750.6 153.243 743.557 154.128ZM890.557 225.128L904.557 236.128C902.396 229.824 896.977 226.287 890.557 225.128ZM894.557 233.128L896.557 236.128L890.557 238.128L906.557 250.128L904.557 247.128L909.557 248.128L904.557 242.128C909.085 242.675 913.454 246.169 915.557 250.128L910.557 248.128V249.128L916.557 251.128V252.128H910.557C912.122 255.34 914.716 257.582 917.337 259.847C919.231 261.484 921.138 263.133 922.681 265.167C924.405 267.442 926.057 269.745 927.702 272.04L927.703 272.042L927.704 272.043L927.705 272.044L927.706 272.045L927.707 272.046C931.974 277.998 936.202 283.894 941.554 289.089C948.604 295.934 956.298 302.439 964.048 308.99L964.048 308.991C980.531 322.926 997.26 337.069 1008.56 355.128C1002.76 360.676 1022.11 375.8 1026.56 379.128L1013.56 357.128L1028.56 366.128L1023.56 358.128L1035.56 368.128L1024.56 343.128C1021.03 344.412 1019.44 342.174 1017.71 339.729C1016.95 338.658 1016.17 337.549 1015.18 336.677C1012.61 334.42 1009.97 332.331 1007.33 330.24C1003.32 327.071 999.31 323.898 995.558 320.128C987.865 312.402 980.686 304.043 973.501 295.678L973.5 295.677L973.5 295.677C961.366 281.55 949.216 267.405 934.557 256.258C933.191 255.22 931.596 253.832 929.853 252.314C923.747 246.998 915.825 240.101 909.557 241.128L908.557 237.128L903.557 241.128C900.708 239.581 898.898 238.506 899.557 235.128L894.557 233.128ZM256.968 273.91L270.556 258.128C273.364 263.808 265.767 271.286 260.974 276.004C260.224 276.742 259.542 277.413 258.98 277.998C254.869 282.283 250.532 286.433 246.18 290.596C234.818 301.468 223.359 312.433 215.556 326.128L221.556 325.128C217.269 334.603 212.105 344.856 203.556 351.128L205.556 340.128L193.556 359.128L192.556 356.128C184.61 365.835 178.338 379.152 174.654 391.128C173.958 393.389 173.583 395.508 173.217 397.579C172.598 401.081 172.003 404.447 169.923 408.128C167.954 411.614 165.054 414.629 162.157 417.642C157.492 422.493 152.833 427.337 152.075 434.128C151.761 436.937 152.857 439.305 153.955 441.681C154.903 443.729 155.852 445.782 155.904 448.128C156.041 454.303 154.158 460.442 152.292 466.523C151.097 470.417 149.91 474.287 149.265 478.128C148.723 481.352 148.465 484.552 148.209 487.72C147.558 495.767 146.925 503.601 141.717 511.066C139.202 514.672 131.796 517.121 128.735 512.694C125.758 508.388 126.868 502.277 127.93 496.425C128.604 492.714 129.259 489.106 128.841 486.128C128.192 481.506 125.373 477.545 122.578 473.62C118.396 467.746 114.27 461.95 117.556 454.128L120.556 455.128C121.341 453.45 122.406 451.77 123.485 450.07C125.308 447.194 127.17 444.259 127.779 441.167C128.013 439.978 127.768 438.82 127.525 437.675C127.212 436.197 126.904 434.738 127.637 433.258C128.579 431.36 129.958 429.824 131.346 428.279C132.99 426.448 134.646 424.605 135.601 422.128C136.277 420.378 136.518 418.449 136.759 416.532C137.027 414.398 137.293 412.277 138.152 410.427C139.026 408.547 140.571 406.955 142.15 405.327C143.699 403.73 145.282 402.099 146.297 400.128C146.523 399.691 146.761 399.236 147.007 398.766L147.008 398.765C150.132 392.802 154.513 384.44 149.556 379.128C149.827 378.278 150.098 377.423 150.37 376.566L150.386 376.516C158.039 352.397 166.493 325.754 179.766 304.128C181.69 300.993 194.422 282.523 198.528 286.929C200.202 288.725 199.529 292.438 198.99 295.414C198.804 296.444 198.633 297.385 198.581 298.128C198.114 304.807 195.837 311.059 193.559 317.316C191.326 323.447 189.091 329.583 188.556 336.128C201.419 326.643 217.98 314.139 227.556 301.128L224.556 300.128L242.556 280.128L246.556 283.128L256.968 273.91ZM1065.56 497.128L1067.56 495.128C1072.09 504.839 1076.49 519.867 1072.56 530.128H1076.56L1073.56 493.128L1078.56 497.128H1079.56L1079.56 496.61C1079.5 475.083 1079.42 447.82 1066.12 430.128C1059.02 420.688 1049.44 410.458 1038.56 420.128C1038.5 417.78 1035.4 407.516 1031.88 413.718C1030.85 415.547 1032.67 417.585 1034.56 419.705C1036.15 421.485 1037.79 423.323 1037.83 425.143C1038.16 438.274 1043.31 446.797 1049.08 456.344C1051.47 460.297 1053.97 464.425 1056.27 469.128C1059.23 475.177 1061.16 481.972 1063.05 488.644L1063.05 488.645C1063.87 491.519 1064.67 494.37 1065.56 497.128ZM115.557 560.128L118.557 550.128L120.846 586.128L127.387 619.128L127.557 684.128H126.557L125.557 681.128H124.557L127.557 704.128L123.557 697.128C125.389 694.268 124.374 692.08 123.272 689.703C122.611 688.278 121.918 686.786 121.79 685.039C121.616 682.684 121.696 680.44 121.774 678.226C121.915 674.258 122.053 670.384 120.725 666.128C119.733 662.951 118.029 660.271 116.336 657.608C114.815 655.217 113.303 652.839 112.321 650.124C106.683 634.53 107.366 619.803 108.076 604.485C108.295 599.769 108.516 594.998 108.557 590.128L104.557 594.128H103.557L114.557 551.128H115.557V560.128ZM1072.56 604.128L1072.54 623.038L1068.75 632.132L1066.68 670.128L1054 690.128L1050.62 707.128L1040.19 722.128L1029.64 747.128L1026.8 769.128L1020.92 781.128L1020.56 799.128L1024.56 797.128C1028.12 808.448 1024.59 818.192 1015.56 826.128C1014.24 820.019 1008.32 827.74 1005.71 831.14C1005.5 831.42 1005.31 831.671 1005.14 831.882C1005.07 831.972 1005.01 832.054 1004.95 832.128C1002.43 835.252 999.768 838.296 997.101 841.347C990.577 848.809 984.016 856.314 979.446 865.128C976.413 870.976 973.104 877.737 980.557 881.128L979.557 884.128C990.914 877.559 1005.44 863.423 1010.56 851.128L1013.56 852.128L1028.41 820.128L1036.6 797.552L1051.56 771.128L1045.56 778.128C1046.48 771.874 1048.78 765.409 1053.56 761.128C1052.38 752.755 1056.32 746.946 1060.39 740.94C1062.49 737.848 1064.62 734.703 1066.11 731.128C1071.9 717.208 1074.43 704.17 1077.08 690.508C1078.11 685.173 1079.16 679.743 1080.44 674.128C1080.87 672.209 1081.88 669.685 1082.98 666.937L1082.98 666.936C1086.59 657.923 1091.16 646.506 1079.56 646.128L1076.56 664.128H1075.56C1075.56 659.617 1075.81 654.598 1076.08 649.348C1076.86 633.921 1077.75 616.503 1072.56 604.128ZM146.557 709.128L143.557 694.128H145.557L148.557 703.128L149.557 701.128H150.557C151.443 707.99 154.25 714.228 157.076 720.505C158.647 723.996 160.224 727.499 161.479 731.128C163.391 736.66 164.645 742.453 165.898 748.243C167.442 755.374 168.985 762.501 171.756 769.128C176.173 779.692 182.189 789.745 188.192 799.776C192.814 807.5 197.428 815.21 201.297 823.128C203.88 828.414 205.043 833.889 206.207 839.365C207.263 844.332 208.318 849.3 210.433 854.128C214.634 863.726 220.587 872.2 226.527 880.655C229.744 885.234 232.957 889.808 235.887 894.552C238.183 898.271 240.187 902.098 242.186 905.916C245.611 912.454 249.02 918.964 253.852 924.842C269.071 943.361 290.046 962.308 309.647 975.993C311.877 977.551 315.027 979.128 318.395 980.815C326.076 984.662 334.895 989.079 336.557 995.128C347.76 995.176 356.707 1004.05 365.221 1012.49C369.698 1016.93 374.055 1021.25 378.557 1024.1C391.82 1032.51 407.065 1038.37 422.16 1044.17C430.808 1047.49 439.407 1050.79 447.557 1054.55C448.334 1054.9 449.165 1055.28 450.028 1055.66C454.256 1057.55 459.249 1059.79 462.474 1062.43C463.574 1063.34 464.401 1064.46 465.222 1065.56C466.418 1067.18 467.598 1068.78 469.585 1069.66C472.825 1071.09 475.158 1069.94 477.569 1068.75C479.874 1067.62 482.25 1066.44 485.557 1067.46C487.354 1068.01 488.882 1069.07 490.417 1070.14C492.02 1071.24 493.629 1072.36 495.557 1072.91C498.479 1073.74 501.298 1073.51 504.12 1073.28C506.574 1073.08 509.029 1072.88 511.557 1073.38C515.893 1074.23 520.206 1075.13 524.513 1076.02C538.084 1078.85 551.593 1081.66 565.557 1083.05C581.141 1084.6 597.338 1084.1 613.362 1083.61C621.165 1083.37 628.927 1083.13 636.557 1083.13C637.611 1083.13 638.691 1083.13 639.794 1083.13C659.324 1083.17 686.104 1083.21 702.529 1073.05C704.455 1071.85 704.99 1070.03 705.54 1068.16C706.167 1066.02 706.813 1063.82 709.557 1062.41C713.593 1060.33 731.7 1057.15 732.557 1061.13L727.557 1062.13V1063.13C735.254 1063.7 742.54 1060.62 749.713 1057.6C752.338 1056.49 754.948 1055.39 757.557 1054.47L758.786 1054.04C783.212 1045.48 809.411 1036.3 831.557 1022.92C835.176 1020.74 838.877 1017.66 842.678 1014.5C849.904 1008.49 857.489 1002.18 865.557 1001.13L859.557 994.128C863.621 986.46 867.606 986.982 872.795 987.661C874.847 987.93 877.087 988.223 879.596 988.044C884.783 987.675 890.487 983.919 894.557 980.97C922.649 960.613 955.893 934.918 975.557 906.128H976.557V911.128L973.557 912.128V913.128C976.582 916.313 972.103 920.78 969.251 923.623C968.872 924.001 968.522 924.351 968.222 924.664C966.012 926.975 963.865 929.455 961.699 931.957C955.712 938.872 949.576 945.959 941.557 950.128C941.326 955.899 936.362 959.905 931.844 963.552C930.69 964.483 929.566 965.39 928.557 966.297C925.042 969.457 921.563 972.67 918.081 975.885C908.214 984.995 898.327 994.125 887.556 1002.13C875.163 1011.34 862.022 1019.07 848.809 1026.85C844.057 1029.65 839.296 1032.45 834.557 1035.33C831.925 1036.93 829.504 1038.94 827.092 1040.93C824.337 1043.22 821.592 1045.49 818.557 1047.14C816.135 1048.45 813.382 1049.06 810.617 1049.67C808.202 1050.2 805.777 1050.74 803.557 1051.75C800.654 1053.07 797.759 1054.39 794.87 1055.71C776.553 1064.07 758.437 1072.34 739.557 1079.59C734.542 1081.52 729.591 1083.57 724.646 1085.63C710.335 1091.58 696.085 1097.5 680.557 1100.13L684.557 1105.13V1107.13C670.44 1111.13 656.359 1111.6 642.251 1112.07C632.374 1112.4 622.483 1112.73 612.557 1114.28C609.825 1114.7 607.358 1117.1 604.924 1119.47C601.985 1122.33 599.094 1125.14 595.842 1124.38C591.455 1123.34 587.792 1119.62 584.192 1115.95C581.367 1113.08 578.58 1110.24 575.514 1108.78C571.986 1107.1 567.815 1106.47 563.631 1105.85C557.216 1104.89 550.77 1103.92 546.557 1099.13L549.557 1098.13V1096.13L522.557 1092.13L523.557 1095.13C520.377 1095.13 516.417 1095.22 516.557 1099.13L506.502 1092.27L483.557 1087.13V1086.13L487.557 1085.13C484.207 1079.34 474.187 1078.05 465.651 1076.96C462.196 1076.52 458.984 1076.1 456.557 1075.44C442.923 1071.69 429.428 1065.94 416.172 1060.29C411.604 1058.35 407.064 1056.41 402.557 1054.57C399.423 1053.3 396.098 1052.53 392.8 1051.76C388.128 1050.68 383.508 1049.61 379.557 1047.13L380.557 1044.13L397.557 1049.13V1048.13C395.053 1046.96 392.651 1045.78 390.298 1044.62C380.732 1039.91 371.978 1035.6 360.557 1034.13L366.557 1044.13C339.101 1034.32 309.892 1018.15 286.557 1000.49C284.939 999.265 283.368 997.969 281.796 996.671C278.532 993.977 275.264 991.28 271.557 989.211C270.537 988.643 269.297 988.252 268.043 987.857C266.191 987.274 264.308 986.681 263.057 985.489C260.343 982.903 261.206 978.846 264.557 978.128L264.488 978.005C262.915 975.19 259.227 968.589 256.557 973.128L252.557 972.128V970.128L256.557 969.128L228.557 930.128L245.557 948.128C243.852 941.283 234.876 929.44 227.557 929.128L226.557 928.128C226.9 924.597 226.168 922.819 222.557 922.128L220.557 918.128C219.056 910.899 213.055 902.454 207.495 894.632C204.587 890.539 201.799 886.617 199.841 883.128C197.113 878.269 194.36 873.447 191.616 868.639C177.099 843.206 162.808 818.17 153.557 790.128H154.557L165.557 804.128C164.73 798.019 162.53 792.332 160.329 786.642C158.736 782.525 157.144 778.407 156.071 774.128C154.673 768.556 153.968 761.882 153.233 754.932C151.692 740.347 150.021 724.543 141.557 715.128L142.557 703.128H143.557L146.557 709.128Z" fill="#B18272"/>
<path d="M573.398 335.334L534.482 347.674L524.754 370.403C524.754 370.403 524.106 372.024 523.458 373.323C453.412 534.053 448.224 546.718 445.954 556.459C443.035 570.422 444.658 577.566 449.198 583.086C453.414 587.631 458.925 590.555 464.114 590.555H503.678L516.322 562.303H486.814C480.652 562.303 478.705 560.679 479.354 557.757C479.678 555.809 480.329 553.537 480.978 551.589C492.977 523.339 505.298 494.764 505.298 494.764L510.81 481.775L519.89 460.347L546.482 398.003L558.806 369.754L573.398 335.334ZM623.603 418.133L587.283 423.656L567.175 469.114H541.235L531.179 497.687L556.151 498.011C556.151 498.011 543.178 526.912 530.531 555.486C523.072 572.046 528.26 584.058 545.123 589.578C547.069 590.227 549.017 590.555 550.963 590.555H588.579L600.579 563.929C600.579 563.929 584.037 564.253 567.823 564.578C566.85 564.578 566.204 564.578 565.231 564.253C563.609 563.928 562.634 561.98 563.283 560.032L590.851 498.66H615.819L628.791 469.114H602.199L623.603 418.133ZM699.736 462.456C687.352 462.532 672.858 467.47 658.366 478.855C652.529 483.401 647.018 489.571 642.154 496.39C611.995 540.55 619.129 575.942 647.342 591.528C670.042 603.867 701.497 596.399 725.17 564.253C733.926 552.239 738.465 541.197 740.086 529.833L754.03 526.585L765.058 501.584H759.222C753.385 500.935 747.547 499.635 742.034 497.687C741.71 496.389 741.386 495.089 740.738 493.79C735.225 477.23 730.36 471.387 715.118 465.217C710.558 463.391 705.365 462.421 699.736 462.456H699.736ZM421.982 466.42C411.541 466.434 400.311 467.814 387.542 470.736C373.274 473.984 361.923 478.53 351.87 484.05C336.304 492.817 324.954 502.232 316.522 512.298C305.496 525.611 299.333 537.628 296.738 549.967C290.577 577.891 305.173 594.448 324.63 594.448C344.088 594.773 358.029 589.578 369.054 579.837C370.027 581.786 371.325 583.733 372.946 585.356C376.838 589.253 379.432 590.231 381.702 590.231H417.374L429.05 564.253H414.13C410.563 563.929 406.998 563.604 403.43 562.955C399.215 561.981 396.622 555.811 401.162 546.069C403.432 540.874 406.026 535.352 406.026 535.352L408.942 529.184L417.374 512.298C414.132 511.648 410.89 511.325 407.322 511.325C385.919 511.974 383.324 513.923 377.162 529.184C376.514 531.132 375.867 533.079 374.894 535.027C374.246 536.976 373.595 538.927 372.622 540.875C364.839 559.383 363.219 561.007 348.626 562.955C345.383 563.28 342.141 563.604 339.222 563.28C333.061 563.28 327.873 556.133 329.494 548.341C331.764 538.599 338.247 529.51 359.326 513.924C369.055 506.456 380.407 501.259 393.378 498.011C404.404 495.089 415.428 494.438 426.778 495.412C426.778 495.412 438.128 477.232 445.262 468.79C437.743 467.227 430.102 466.409 421.981 466.42H421.982ZM694.686 491.844C694.038 493.467 693.391 495.415 692.742 497.363C689.5 512.949 693.715 521.389 707.01 526.909C708.307 527.559 709.605 528.21 711.226 528.535C709.929 538.926 705.715 547.043 695.986 556.135C691.771 560.031 687.554 563.278 683.662 565.226C668.745 573.019 654.801 566.202 652.206 554.512C650.585 548.018 651.232 541.522 654.15 530.482C655.447 525.936 657.395 521.39 660.962 516.195C671.339 500.934 681.715 494.117 694.686 491.844V491.844Z" fill="#B18272"/>
<path d="M826.493 549.834L787.577 562.174L777.849 584.903C777.849 584.903 777.201 586.524 776.553 587.823C706.506 748.553 701.314 761.218 699.044 770.959C696.126 784.921 697.749 792.065 702.288 797.585C706.504 802.131 712.016 805.055 717.205 805.055H756.769L769.417 776.803H739.905C733.743 776.803 731.8 775.179 732.449 772.257C732.773 770.309 733.42 768.037 734.069 766.089C746.067 737.839 758.393 709.264 758.393 709.264L763.905 696.275L772.985 674.847L799.577 612.503L811.897 584.254L826.493 549.834ZM503.678 662.183L445.954 729.073L470.926 740.436C470.926 740.436 483.895 724.2 492.326 718.031C493.948 721.278 495.245 724.852 496.218 728.424C500.11 745.958 496.544 759.27 489.734 766.089C481.951 773.882 474.167 777.127 468.654 777.127C450.494 776.802 432.334 776.478 432.334 776.478L419.686 805.055H471.898C476.114 805.055 480.653 804.403 486.49 802.78C518.27 793.688 538.376 756.998 522.486 706.019C520.865 701.148 519.244 696.275 516.974 691.729L521.838 684.587C521.838 684.587 524.108 681.339 526.702 677.767C530.594 672.572 534.487 667.378 538.378 662.183L503.678 662.183ZM632.972 676.956C620.587 677.032 606.097 681.97 591.606 693.355C585.768 697.901 580.254 704.071 575.39 710.89C545.231 755.05 552.365 790.442 580.578 806.028C603.278 818.367 634.737 810.899 658.41 778.753C667.166 766.739 671.704 755.697 673.326 744.333L687.27 741.085L698.298 716.084H692.458C686.621 715.435 680.787 714.135 675.274 712.187C674.95 710.889 674.622 709.589 673.974 708.29C668.461 691.73 663.599 685.887 648.358 679.717C643.797 677.891 638.601 676.921 632.971 676.956H632.972ZM860.987 676.956C848.603 677.032 834.113 681.97 819.621 693.355C813.784 697.901 808.27 704.071 803.406 710.89C773.247 755.05 780.38 790.442 808.594 806.028C831.294 818.367 862.753 810.899 886.426 778.753C895.181 766.739 899.72 755.697 901.342 744.333L915.286 741.085L926.31 716.084H920.474C914.637 715.435 908.799 714.135 903.286 712.187C902.961 710.889 902.638 709.589 901.99 708.29C896.477 691.73 891.611 685.887 876.369 679.717C871.809 677.891 866.616 676.921 860.987 676.956H860.987ZM627.926 706.344C627.277 707.967 626.631 709.915 625.982 711.863C622.739 727.449 626.954 735.889 640.25 741.409C641.547 742.058 642.845 742.71 644.466 743.035C643.169 753.426 638.95 761.543 629.222 770.635C625.006 774.531 620.793 777.778 616.902 779.726C601.985 787.519 588.04 780.702 585.446 769.012C583.824 762.518 584.471 756.022 587.39 744.982C588.687 740.436 590.634 735.89 594.202 730.695C604.579 715.434 614.954 708.617 627.926 706.344V706.344ZM855.942 706.344C855.293 707.967 854.642 709.915 853.994 711.863C850.751 727.449 854.97 735.889 868.266 741.409C869.563 742.058 870.86 742.71 872.482 743.035C871.185 753.426 866.966 761.543 857.238 770.635C853.022 774.531 848.805 777.778 844.914 779.726C829.996 787.519 816.052 780.702 813.458 769.012C811.836 762.518 812.487 756.022 815.405 744.982C816.702 740.436 818.646 735.89 822.213 730.695C832.591 715.434 842.97 708.617 855.942 706.344V706.344Z" fill="#B18272"/>
</svg>
