<?xml version="1.0" encoding="UTF-8" standalone="no"?>
<svg
   xmlns:dc="http://purl.org/dc/elements/1.1/"
   xmlns:cc="http://creativecommons.org/ns#"
   xmlns:rdf="http://www.w3.org/1999/02/22-rdf-syntax-ns#"
   xmlns:svg="http://www.w3.org/2000/svg"
   xmlns="http://www.w3.org/2000/svg"
   xmlns:sodipodi="http://sodipodi.sourceforge.net/DTD/sodipodi-0.dtd"
   xmlns:inkscape="http://www.inkscape.org/namespaces/inkscape"
   width="158.38858mm"
   height="48.932121mm"
   viewBox="0 0 158.38858 48.932121"
   version="1.1"
   id="svg8"
   inkscape:version="1.0.2 (1.0.2+r75+1)"
   sodipodi:docname="artloveyou-horisontal.svg">
  <defs
     id="defs2" />
  <sodipodi:namedview
     id="base"
     pagecolor="#ffffff"
     bordercolor="#666666"
     borderopacity="1.0"
     inkscape:pageopacity="0.0"
     inkscape:pageshadow="2"
     inkscape:zoom="0.5"
     inkscape:cx="400.78875"
     inkscape:cy="-2.136126"
     inkscape:document-units="mm"
     inkscape:current-layer="layer1"
     inkscape:document-rotation="0"
     showgrid="false"
     inkscape:window-width="1920"
     inkscape:window-height="1012"
     inkscape:window-x="0"
     inkscape:window-y="0"
     inkscape:window-maximized="1"
     fit-margin-top="0"
     fit-margin-left="0"
     fit-margin-right="0"
     fit-margin-bottom="0" />
  <metadata
     id="metadata5">
    <rdf:RDF>
      <cc:Work
         rdf:about="">
        <dc:format>image/svg+xml</dc:format>
        <dc:type
           rdf:resource="http://purl.org/dc/dcmitype/StillImage" />
        <dc:title></dc:title>
      </cc:Work>
    </rdf:RDF>
  </metadata>
  <g
     inkscape:label="Layer 1"
     inkscape:groupmode="layer"
     id="layer1"
     transform="translate(-27.007404,-180.59906)">
    <path
       id="path944"
       style="fill:#000000;fill-opacity:1;stroke:none;stroke-width:0.05;stroke-linecap:butt;stroke-linejoin:miter;stroke-miterlimit:4;stroke-dasharray:none;stroke-opacity:1"
       d="m 160.42662,224.07986 c 1.39475,0.1062 0.73285,1.26975 -0.0889,1.14441 -1.50845,-0.23007 -3.21794,-0.36619 -3.66295,-2.60797 -0.32857,-1.6552 0.39035,-4.13685 4.61217,-5.266 4.3669,-1.16796 12.94224,1.89458 19.63215,3.40203 1.69286,0.38146 2.03934,-1.52095 1.39369,-1.91111 -0.87714,-0.53005 -1.87389,-0.89571 -2.96801,-1.20383 -0.49287,-0.1388 -0.314,-0.98478 0.51063,-0.74259 1.49096,0.43789 3.54357,1.22477 4.06103,3.43192 0.62623,2.67113 -2.52967,4.94025 -6.98927,4.07811 -5.44645,-1.05292 -10.26052,-3.42217 -15.94345,-2.85375 -0.60731,0.0607 -4.34671,0.73746 -2.43743,2.23644 0.62445,0.49025 1.21692,0.24185 1.88039,0.29234 z m 8.99361,-32.3929 c -0.6354,0.003 -1.34599,0.11289 -2.12856,0.37052 -0.41929,0.13803 -0.29452,0.50132 -0.0119,0.68264 1.51933,0.97469 2.38907,2.44634 0.39015,5.06481 -0.2072,0.27142 -0.55231,0.63422 -1.07611,-0.0733 -0.46344,-0.626 -0.34881,-2.13406 -0.59924,-3.13888 -0.46617,-1.87046 -2.28805,-2.37376 -4.3465,-2.55747 -1.49833,-0.13373 -2.76621,0.21711 -3.30058,1.4609 -2.16186,5.03188 -2.07914,9.29718 -1.84588,13.41778 0.0673,1.18855 0.0663,2.47537 1.53789,3.13211 0.92527,0.41293 2.03636,0.51935 3.50986,0.28732 0.57388,-0.0904 1.058,-0.37207 1.35703,-1.13223 1.1402,-2.89853 2.37341,-5.66896 2.85874,-9.26713 0.0453,-0.33568 0.25491,-0.30812 0.57671,-0.17467 0.36698,0.15219 0.58593,0.38133 1.44694,-0.14211 0.20922,-0.12719 0.39483,-0.005 0.36483,0.35657 -0.18097,2.17998 -0.83402,3.71849 -0.91622,6.13709 -0.0699,2.05527 1.72009,5.77906 5.02812,3.63854 1.20332,-0.77863 1.99912,-3.19163 2.87114,-5.39967 0.14012,-0.35481 0.2695,-0.31469 0.3514,0.15348 0.28708,1.64018 0.28142,7.67241 6.82232,7.92251 0.79711,0.0305 3.23543,-0.24174 3.07836,-2.96829 -0.0304,-0.52863 -0.67613,-0.65474 -0.80046,-0.0801 -0.14597,0.67464 -0.24955,1.11939 -0.49868,1.37976 -0.25944,0.27115 -0.69298,0.38272 -1.23817,0.0315 -2.99662,-1.93036 -1.36268,-9.41482 -1.49293,-15.06833 -0.0438,-1.8996 -1.07704,-3.00439 -2.50786,-3.54449 -0.72572,-0.27394 -1.61727,-0.29745 -2.65823,-0.0114 -0.38056,0.10459 -0.65558,0.28048 -0.60668,1.14256 0.25777,4.54925 0.91724,9.14798 -2.96158,14.6575 -0.5676,0.80622 -0.88701,-0.36188 -0.7276,-1.4459 0.65909,-4.48193 2.44066,-7.74971 1.31516,-12.57649 -0.21159,-0.90744 -1.52223,-2.26573 -3.7915,-2.25516 z m -5.34748,2.92023 c 0.2693,-0.0246 0.5225,0.2357 0.56482,0.39946 0.0861,0.33333 0.10178,0.61916 0.0806,0.93379 -0.0155,0.23004 -0.11772,0.43968 -0.24805,0.66353 -0.33733,0.57937 -1.13069,0.9073 -0.19947,2.03191 0.23493,0.28373 0.39371,1.00023 0.10442,1.77449 -0.76869,2.05727 -0.83745,4.11051 -1.70329,7.0596 -0.35988,1.22577 -1.37458,0.99722 -1.32963,-0.0274 0.18397,-4.1936 -0.12478,-8.86639 2.37194,-12.58941 0.11064,-0.16497 0.23623,-0.2348 0.35864,-0.24598 z m -22.31845,-2.32822 c -0.0241,0.29001 -0.5087,0.58965 -0.65856,-0.0669 -0.3186,-1.39579 0.951,-2.12569 2.80076,-2.38628 2.28181,-0.32146 4.52509,0.23897 4.98064,3.84223 0.31617,2.50078 -0.65968,5.58066 -1.18485,7.48054 -2.38213,8.61768 -1.81783,7.25106 -2.11407,8.89948 -0.10021,0.55764 0.26244,0.80796 0.55073,0.41941 2.62422,-3.53682 4.88155,-7.75908 5.11444,-16.32513 0.0159,-0.58418 0.0963,-1.17934 0.59902,-1.46474 1.74347,-0.98976 2.79619,-0.34016 3.22002,0.16717 0.72952,0.87325 0.97212,2.1376 0.83079,3.47238 l -1.80966,17.09079 c -0.46649,4.40563 -2.40761,9.22456 -4.76853,11.98865 -1.06412,1.24584 -1.82276,2.2961 -3.10465,3.09819 -0.63005,0.39423 -1.42506,0.94913 -2.3697,1.00757 -7.00183,0.43313 -7.80694,-4.0865 -5.60583,-8.38761 1.1749,-2.29582 2.53478,-3.85403 6.7274,-5.41394 1.18737,-0.44178 2.70421,0.20406 1.66703,1.15113 -2.13156,1.94638 -4.36012,3.4335 -3.68142,8.259 0.23628,1.6799 1.41209,3.75821 4.21434,0.24129 3.56982,-4.48025 2.08656,-12.37135 3.27644,-19.58554 0.0816,-0.49504 -0.27945,-0.28586 -0.36629,-0.11146 -1.11895,2.24717 -2.47312,4.38293 -3.95529,6.47674 -0.20766,0.29335 -0.72969,0.37362 -1.03688,0.24042 -1.82317,-0.79054 -4.88484,-0.0709 -3.17585,-10.46494 0.54976,-3.34364 2.52477,-6.69608 1.69689,-9.78784 -0.47989,-1.79215 -1.74735,-1.03829 -1.84692,0.15939 z m -15.43963,-3.10437 c 0.26064,-0.40591 -0.157,-0.88936 -0.61526,-0.6852 -0.32302,0.14391 -0.3842,0.57182 -0.65759,0.77123 -0.71343,0.52036 -1.06797,-0.21851 -0.83454,-0.70602 0.28505,-0.59534 0.81058,-1.07147 1.58793,-1.38969 0.59665,-0.24425 1.67531,-0.28634 1.90924,0.76522 0.96758,4.34934 -1.4977,7.31255 -3.07206,8.85111 -1.31604,1.28612 -2.67211,2.04291 -3.9523,3.21254 -0.69471,0.63471 -0.68132,2.26598 0.30721,1.94585 1.63431,-0.52927 3.3128,-2.19475 5.23944,-4.25872 0.43798,-0.4692 0.51183,-0.83903 0.64863,-1.34855 0.31682,-1.18004 1.27939,-0.96996 1.67757,-0.0819 1.95009,4.34937 -1.56254,6.43146 -4.25678,8.77263 -2.68564,2.3337 -6.78443,3.62715 -7.4014,7.14027 -0.12276,0.69903 0.41427,1.3183 1.99375,1.26826 5.63849,-0.17865 10.00525,-5.17748 13.50362,-12.12141 0.5941,-1.17924 0.87069,-2.52245 0.71186,-4.1576 -0.045,-0.4634 0.66308,-1.31214 1.15407,-0.55887 1.46454,2.24688 2.88002,4.82034 0.0651,10.47772 -2.27365,4.56953 -6.00212,8.94948 -12.86995,9.43935 -3.15293,0.22489 -6.03753,-0.7696 -6.99483,-4.05386 -0.92863,-3.18593 0.6341,-6.21095 3.80862,-8.86344 0.4542,-0.37951 0.4303,-0.64802 0.20136,-0.94049 -0.95506,-1.22009 -1.75532,-2.87336 0.47908,-6.64612 1.82028,-3.07352 5.53989,-3.98649 7.36723,-6.83231 z m -35.026623,-8.57534 c -1.455711,-0.0136 -2.985386,0.68132 -3.645257,1.76889 -1.240642,2.04477 -1.659197,3.89339 -2.075842,5.94692 -0.165433,0.81538 0.686748,1.51299 1.005623,0.58911 0.710639,-2.05893 0.907958,-4.37369 2.219503,-5.66839 0.568867,-0.56156 0.717235,-0.22253 0.701765,0.16898 -0.305589,7.73355 -1.975496,11.02169 -3.237011,18.07073 -1.308195,7.30989 0.326628,11.32744 4.014224,12.65298 3.889409,1.39808 4.065855,-1.93102 5.065326,-4.00958 0.05677,-0.11807 0.216011,-0.15271 0.28887,0.0563 0.850828,2.44108 4.295685,3.45769 5.647202,0.3514 0.99404,-2.28468 1.60101,-4.81393 2.44688,-7.23677 0.20142,-0.57694 0.004,-0.88363 1.41748,-1.16323 0.28034,-0.0555 0.6256,-0.34029 0.54881,0.98237 l -0.34675,5.97224 c -0.0916,1.57772 1.73966,4.3541 3.86126,3.18224 5.85802,-3.23569 7.68833,-14.74888 7.64708,-17.95705 -0.004,-0.3145 -0.11041,-0.63877 -0.62994,-0.79891 -0.80124,-0.24699 -1.41197,-0.0745 -2.2133,0.83612 -0.3929,0.4465 -0.25028,1.13497 -0.24495,1.94097 l 0.0227,3.43596 c 0.006,0.85727 -0.14561,1.92479 -0.59221,3.34088 -0.72843,2.30975 -1.5339,4.58595 -2.92644,6.62802 -0.36449,0.53451 -0.66699,0.39631 -0.67179,-0.14262 -0.0254,-2.84707 1.32806,-6.35261 1.92495,-9.55549 0.29553,-1.58578 1.08078,-4.16297 -0.57516,-5.44463 -0.76457,-0.59176 -2.17792,-1.25355 -3.97702,-0.85163 -0.71507,0.15975 -1.73875,1.43783 -0.89504,1.77922 0.7217,0.29202 0.13751,3.61422 -0.0248,4.23488 -0.21651,0.82797 -1.2683,1.33615 -1.45934,0.11059 -0.0751,-0.48202 0.031,-2.0016 0.0465,-3.0024 0.0266,-1.71896 -0.24227,-1.98238 -0.67438,-2.35438 -1.27525,-1.09783 -2.64835,-1.21579 -4.066934,-1.05885 -1.626079,0.1799 -2.81522,0.9974 -3.377054,2.30167 -1.208106,2.80456 -2.549433,4.68804 -1.830896,11.59361 0.05462,0.52494 0.118809,1.10283 -0.185002,1.85208 -0.336333,0.82946 -0.581006,1.67961 -1.216464,2.42208 -0.22202,0.2594 -0.558908,0.70256 -1.280025,-0.0124 -0.667274,-0.66158 -0.907407,-1.3253 -0.974101,-1.99626 -0.830667,-8.35663 5.511372,-23.28797 3.458189,-26.95494 -0.76304,-1.36279 -1.912257,-1.99878 -3.196703,-2.01073 z m 11.650963,15.43472 c 0.33582,-0.0417 0.54983,0.21619 0.15193,0.70693 -1.34393,1.65753 -1.03126,2.69157 -0.78961,3.78633 0.18408,0.83397 0.25198,1.62016 0.0584,2.42156 -0.49865,2.06421 -1.17308,3.99107 -1.92339,5.60482 -0.19956,0.42921 -0.475562,0.62622 -0.587049,-0.0191 -0.743659,-4.30458 -0.276289,-10.60442 2.939869,-12.46436 0.0473,-0.0273 0.10189,-0.0302 0.14986,-0.0362 z m -33.740349,-7.68037 c 0.30823,-1.74984 0.460135,-3.60354 -0.661439,-5.53504 -0.117343,-0.20208 -0.858413,-0.79239 -1.45515,0.15787 -0.150765,0.24008 -0.0501,0.52566 -0.05249,0.79663 -0.0049,0.55209 -0.571787,0.48361 -0.798738,-5.5e-4 -0.191472,-0.40847 -0.345447,-0.87188 0.380205,-1.41548 2.939764,-2.20225 5.152746,-1.44177 6.463538,-0.63847 1.604751,0.98345 2.088994,2.87479 1.546246,7.85989 -0.05642,0.51822 0.02312,0.8565 0.394231,0.97701 1.883437,0.61161 4.011317,1.19899 6.033979,-1.29349 0.30139,-0.3714 1.651407,-0.0989 1.083743,1.27075 -0.98322,2.37229 -3.283787,2.79409 -6.720069,1.29628 -0.423449,-0.18457 -0.973224,-0.33165 -1.066591,0.21242 -1.066692,6.21593 -3.383094,12.27307 -2.965119,18.6845 0.03255,0.4993 0.263051,0.7797 0.701416,0.35065 0.650642,-0.63682 1.068068,-1.21399 1.299384,-2.18995 0.110873,-0.46779 0.535086,-0.37028 0.462034,0.0347 -0.2767,1.53384 -0.174608,2.7179 -2.466392,4.55359 -2.235333,1.79048 -4.613482,-0.1523 -4.87999,-2.67529 -0.776491,-7.35093 1.969189,-12.74431 2.466085,-20.48295 0.01476,-0.22981 0.08678,-0.544 -0.295262,-0.59038 -1.457911,-0.17698 -2.903328,-0.45517 -4.62642,-0.0267 -0.736306,0.18308 -0.768772,0.72858 -1.003864,1.30072 -0.306662,0.74632 -1.546037,-0.0652 -1.244651,-0.8598 0.192241,-0.50683 0.640818,-0.95788 2.021204,-1.31494 1.667007,-0.63091 5.119739,0.7755 5.38411,-0.4719 z m -22.352864,-6.5813 c -1.202264,0.0495 -2.372159,0.76311 -3.125906,2.42776 -2.568292,5.67207 -3.848971,10.77387 -5.285984,15.75098 -0.153548,0.53182 -0.51453,0.38806 -0.7953,0.31316 -4.476919,-1.19439 -10.950422,1.01349 -9.294522,5.22242 0.691177,1.75682 2.312588,0.47253 2.410188,-0.0429 0.946023,-4.99575 5.206301,-4.12325 6.476092,-4.07986 0.786517,0.0268 0.612283,0.43812 0.506429,0.86248 -0.643081,2.57803 -2.184461,4.59548 -4.191477,6.30866 -1.47824,1.26182 -3.5517,1.21586 -5.478219,1.75597 -1.672857,0.46899 -1.111982,2.62254 -0.05374,3.2892 1.191342,0.75051 1.901794,1.13711 2.615862,1.11931 5.94161,0.0466 6.422297,-7.85904 8.648567,-12.16928 0.318432,-0.61651 0.764254,-0.40094 1.074351,-0.21962 1.399969,0.81859 2.283302,1.81798 2.988966,2.70732 0.417965,0.52676 0.671161,1.05058 0.750343,1.58337 l 0.366244,2.46434 c 0.788837,5.30784 6.345814,5.5735 7.469452,1.0047 0.105037,-0.42709 0.424098,-0.48308 0.565341,0.0279 0.634849,2.29676 2.031748,3.19714 4.027143,3.16104 0.964142,-0.0175 1.442942,-0.48349 0.651124,-1.35495 -0.324475,-0.35711 -0.454329,-0.62835 -0.47439,-0.95033 -0.399735,-6.4178 2.138047,-10.39158 4.555278,-12.92996 0.269473,-0.28298 0.514162,-0.24786 0.528132,0.30747 l 0.114721,4.56613 c 0.02003,0.79646 0.672539,0.80067 1.212847,0.46612 2.463253,-1.52522 3.217177,-3.69776 3.312975,-5.91592 0.141539,-3.27736 -1.601883,-3.73043 -3.404441,-3.77393 -1.094081,-0.0264 -1.285195,0.75078 -1.385446,1.42524 -0.125322,0.84312 -0.171521,1.40299 -0.48886,1.83865 -0.85684,1.17632 -1.874417,2.22746 -2.736268,3.44578 -0.258114,0.36488 -0.63967,0.66212 -0.646469,-0.24546 -0.02048,-2.75141 -0.78725,-4.96731 -4.016812,-5.62446 -1.902862,-0.38719 -1.420127,1.07577 -1.082619,1.59008 1.063347,1.62036 0.151077,6.52454 -0.936895,10.51977 -0.366244,1.34492 -0.709377,2.17407 -1.185458,3.09335 -0.260376,0.50277 -0.80981,0.50804 -0.822171,-0.29197 -0.115525,-7.47974 1.332277,-14.99136 1.706872,-22.68234 0.133463,-2.74017 -2.280714,-5.06474 -4.575948,-4.97024 z m -0.778245,1.911 c 0.389458,-7.9e-4 0.772996,0.29712 0.907954,0.65474 0.353979,0.93799 0.278332,1.91957 0.142627,2.69699 -1.001475,5.73716 -2.315139,11.19967 -2.818435,16.8522 -0.03673,0.41252 -0.309393,0.51841 -0.603062,0.23616 -1.033605,-0.99336 -2.033876,-1.92116 -3.380155,-2.76623 -0.294949,-0.18515 -0.459555,-0.51314 -0.314193,-0.95705 1.785605,-5.45292 4.302186,-14.74458 5.410523,-16.34112 0.185523,-0.26725 0.421063,-0.37521 0.654741,-0.37569 z" />
  </g>
</svg>
