 
<svg width="1704" height="1190" viewBox="0 0 1704 1190" fill="none" xmlns="http://www.w3.org/2000/svg">
<circle cx="133.084" cy="1057.16" r="132.728" fill="#2D68C4"/>
<circle cx="492.556" cy="1057.16" r="132.728" fill="#CEDCED"/>
<circle cx="852.028" cy="1057.16" r="132.728" fill="#AFB3CC"/>
<circle cx="1211.5" cy="1057.16" r="132.728" fill="#F3F388"/>
<circle cx="1570.97" cy="1057.16" r="132.728" fill="#B18272"/>
<path d="M631.39 607.436C631.39 616.594 633.107 622.89 636.542 626.324C640.548 629.186 645.7 630.617 651.996 630.617C656.575 630.617 661.727 630.045 667.45 628.9C673.174 627.183 678.326 625.179 682.905 622.89C715.596 607.436 740.117 654.384 696.642 676.121C687.484 680.7 677.467 684.707 666.592 688.141C655.717 691.576 643.697 693.293 630.532 693.293C619.084 693.293 608.495 691.862 598.765 689C589.034 686.71 580.448 682.131 573.008 675.263C565.567 668.394 559.556 659.236 554.977 647.788C550.971 636.341 548.967 622.031 548.967 604.86V36.4854C548.967 -10.7652 631.39 -11.7628 631.39 36.4854V607.436Z" fill="black"/>
<path fill-rule="evenodd" clip-rule="evenodd" d="M206.753 79.414C237.661 79.414 264.563 83.993 287.459 93.1511C310.354 102.309 329.242 114.615 344.124 130.07C359.579 144.952 371.026 162.409 378.467 182.443C386.481 202.476 390.487 223.654 390.487 245.977C390.487 303.788 365.875 344.427 316.65 367.894C349.848 379.342 374.747 397.372 391.346 421.984C407.945 446.597 416.244 476.933 416.244 512.993C416.244 563.363 401.076 604.001 370.74 634.91C340.404 665.246 294.327 680.414 232.51 680.414H33.3212C15.1153 680.412 0.356445 665.654 0.356445 647.448C0.356445 629.242 15.1153 614.483 33.3212 614.483V145.352C15.1153 145.352 0.356445 130.593 0.356445 112.387C0.356445 94.1808 15.1153 79.4219 33.3212 79.4219L206.753 79.414ZM115.744 404.813V613.446H232.51C252.543 613.446 269.142 610.297 282.307 604.001C296.044 597.705 306.92 589.692 314.933 579.962C322.946 569.659 328.384 558.211 331.246 545.619C334.68 533.026 336.397 520.434 336.397 507.842C336.397 495.249 334.68 482.657 331.246 470.064C328.384 457.472 322.946 446.597 314.933 437.439C306.92 427.708 296.044 419.981 282.307 414.257C269.142 407.961 252.543 404.813 232.51 404.813H115.744ZM115.744 146.383V337.844H206.753C226.786 337.844 243.385 334.982 256.55 329.259C270.287 322.962 281.162 315.235 289.176 306.077C297.189 296.919 302.627 286.616 305.489 275.168C308.923 263.721 310.64 252.273 310.64 240.826C310.64 229.378 308.923 218.217 305.489 207.341C302.627 195.894 297.189 185.591 289.176 176.433C281.162 167.275 270.287 160.12 256.55 154.968C243.385 149.245 226.786 146.383 206.753 146.383H115.744Z" fill="black"/>
<path fill-rule="evenodd" clip-rule="evenodd" d="M792.715 349.006C782.412 378.77 777.26 413.399 777.26 452.893C777.26 492.387 782.412 527.303 792.715 557.639C803.59 587.403 818.186 612.587 836.502 633.193C854.818 653.226 876.568 668.394 901.753 678.697C927.511 688.427 954.985 693.293 984.176 693.293C1013.37 693.293 1040.56 688.427 1065.74 678.697C1091.5 668.394 1113.53 653.226 1131.85 633.193C1150.74 612.587 1165.33 587.403 1175.64 557.639C1186.51 527.303 1191.95 492.387 1191.95 452.893C1191.95 413.399 1186.51 378.77 1175.64 349.006C1165.33 318.67 1150.74 293.485 1131.85 273.451C1113.53 252.846 1091.5 237.677 1065.74 227.947C1040.56 217.644 1013.37 212.493 984.176 212.493C954.985 212.493 927.511 217.644 901.753 227.947C876.568 237.677 854.818 252.846 836.502 273.451C818.186 293.485 803.59 318.67 792.715 349.006ZM896.602 584.254C874.279 555.635 863.118 511.848 863.118 452.893C863.118 393.938 874.279 350.437 896.602 322.39C919.497 293.771 948.688 279.461 984.176 279.461C1020.24 279.461 1049.43 293.771 1071.75 322.39C1094.65 350.437 1106.09 393.938 1106.09 452.893C1106.09 511.848 1094.65 555.635 1071.75 584.254C1049.43 612.301 1020.24 626.324 984.176 626.324C948.688 626.324 919.497 612.301 896.602 584.254Z" fill="black"/>
<path d="M1407.49 225.371L1411.79 280.32C1429.53 262.576 1450.42 246.836 1474.46 233.098C1498.5 219.361 1525.4 212.493 1555.17 212.493C1582.07 212.493 1604.96 215.641 1623.85 221.937C1642.74 228.233 1657.91 238.25 1669.36 251.987C1681.38 265.152 1689.96 282.609 1695.11 304.36C1700.84 326.11 1703.7 352.44 1703.7 383.349V680.414H1621.28V374.763C1621.28 311.229 1592.37 279.461 1534.56 279.461C1514.53 279.461 1494.78 284.04 1475.32 293.199C1455.86 302.357 1437.54 314.949 1420.37 330.976V680.414H1337.95V225.371C1337.95 182.043 1404.04 181.533 1407.49 225.371Z" fill="black"/>
</svg>
