<svg width="1363" height="1363" viewBox="0 0 1363 1363" fill="none" xmlns="http://www.w3.org/2000/svg">
<circle cx="681.772" cy="681.412" r="680.894" fill="black"/>
<circle cx="305.669" cy="944.313" r="70.173" fill="#2D68C4"/>
<circle cx="495.721" cy="944.313" r="70.173" fill="#CEDCED"/>
<circle cx="685.773" cy="944.313" r="70.173" fill="#AFB3CC"/>
<circle cx="875.824" cy="944.313" r="70.173" fill="#F3F388"/>
<circle cx="1065.88" cy="937.003" r="70.173" fill="#B18272"/>
<path d="M569.122 702.892C569.122 707.733 570.03 711.062 571.845 712.878C573.964 714.391 576.687 715.148 580.016 715.148C582.437 715.148 585.161 714.845 588.187 714.24C591.213 713.332 593.937 712.273 596.357 711.062C613.641 702.892 626.605 727.713 603.62 739.206C598.778 741.626 593.483 743.745 587.733 745.561C581.983 747.376 575.628 748.284 568.668 748.284C562.616 748.284 557.017 747.528 551.873 746.014C546.728 744.804 542.189 742.383 538.255 738.752C534.321 735.12 531.143 730.278 528.723 724.226C526.604 718.174 525.545 710.608 525.545 701.53V401.031C525.545 376.05 569.122 375.523 569.122 401.031V702.892Z" fill="white"/>
<path fill-rule="evenodd" clip-rule="evenodd" d="M344.617 423.728C360.958 423.728 375.181 426.149 387.286 430.99C399.391 435.832 409.377 442.339 417.245 450.509C425.416 458.377 431.468 467.607 435.402 478.199C439.639 488.79 441.757 499.987 441.757 511.789C441.757 542.354 428.744 563.839 402.719 576.247C420.271 582.299 433.435 591.831 442.211 604.844C450.987 617.856 455.375 633.895 455.375 652.96C455.375 679.59 447.355 701.076 431.317 717.417C415.278 733.456 390.917 741.475 358.235 741.475H252.924C243.299 741.474 235.496 733.671 235.496 724.046C235.496 714.42 243.299 706.617 252.924 706.617V458.589C243.299 458.589 235.496 450.786 235.496 441.16C235.496 431.535 243.299 423.732 252.924 423.732L344.617 423.728ZM296.501 595.765V706.069H358.235C368.826 706.069 377.602 704.405 384.562 701.076C391.825 697.747 397.575 693.511 401.811 688.366C406.048 682.919 408.923 676.867 410.436 670.209C412.252 663.552 413.16 656.894 413.16 650.236C413.16 643.579 412.252 636.921 410.436 630.264C408.923 623.606 406.048 617.856 401.811 613.015C397.575 607.87 391.825 603.785 384.562 600.759C377.602 597.43 368.826 595.765 358.235 595.765H296.501ZM296.501 459.134V560.359H344.617C355.208 560.359 363.984 558.846 370.945 555.82C378.207 552.491 383.957 548.406 388.194 543.564C392.43 538.722 395.305 533.275 396.818 527.223C398.634 521.17 399.542 515.118 399.542 509.066C399.542 503.013 398.634 497.112 396.818 491.363C395.305 485.31 392.43 479.863 388.194 475.021C383.957 470.179 378.207 466.397 370.945 463.673C363.984 460.647 355.208 459.134 344.617 459.134H296.501Z" fill="white"/>
<path fill-rule="evenodd" clip-rule="evenodd" d="M654.414 566.26C648.967 581.996 646.243 600.305 646.243 621.185C646.243 642.066 648.967 660.525 654.414 676.564C660.163 692.3 667.88 705.615 677.564 716.509C687.248 727.101 698.747 735.12 712.062 740.567C725.68 745.712 740.206 748.284 755.639 748.284C771.072 748.284 785.447 745.712 798.762 740.567C812.38 735.12 824.03 727.101 833.714 716.509C843.7 705.615 851.417 692.3 856.864 676.564C862.614 660.525 865.489 642.066 865.489 621.185C865.489 600.305 862.614 581.996 856.864 566.26C851.417 550.222 843.7 536.906 833.714 526.315C824.03 515.421 812.38 507.401 798.762 502.257C785.447 496.81 771.072 494.086 755.639 494.086C740.206 494.086 725.68 496.81 712.062 502.257C698.747 507.401 687.248 515.421 677.564 526.315C667.88 536.906 660.163 550.222 654.414 566.26ZM709.339 690.636C697.537 675.505 691.636 652.355 691.636 621.185C691.636 590.016 697.537 567.017 709.339 552.189C721.443 537.058 736.877 529.492 755.639 529.492C774.704 529.492 790.137 537.058 801.939 552.189C814.044 567.017 820.096 590.016 820.096 621.185C820.096 652.355 814.044 675.505 801.939 690.636C790.137 705.464 774.704 712.878 755.639 712.878C736.877 712.878 721.443 705.464 709.339 690.636Z" fill="white"/>
<path d="M979.445 500.895L981.715 529.946C991.096 520.565 1002.14 512.243 1014.85 504.98C1027.56 497.718 1041.78 494.086 1057.52 494.086C1071.74 494.086 1083.85 495.751 1093.83 499.079C1103.82 502.408 1111.84 507.704 1117.89 514.967C1124.25 521.927 1128.79 531.157 1131.51 542.656C1134.54 554.156 1136.05 568.076 1136.05 584.417V741.475H1092.47V579.878C1092.47 546.288 1077.19 529.492 1046.63 529.492C1036.03 529.492 1025.59 531.913 1015.31 536.755C1005.02 541.597 995.333 548.255 986.254 556.728V741.475H942.677V500.895C942.677 477.987 977.619 477.718 979.445 500.895Z" fill="white"/>
</svg>
 
