<svg width="1195" height="1195" viewBox="0 0 1195 1195" fill="none" xmlns="http://www.w3.org/2000/svg">
<circle cx="597.436" cy="597.366" r="596.968" fill="#B18272"/>
<path d="M232.38 544.312C238.906 533.299 216.986 520.964 206.158 533.299C187.953 554.036 181.691 568.038 181.19 599.537C181.19 609.555 195.925 614.879 200.581 608.271C202.962 604.892 204.465 601.715 207.505 599.537C211.757 596.489 216.288 597.631 222.524 600.708C341.398 660.508 413 657.053 545.995 611.442C585.935 595.762 610.325 594.812 656.652 604.1C802.97 641.262 877.756 644.803 982.855 583.646C989.636 579.701 993.284 577.373 1001.21 577.878C1010.31 578.456 1012.91 573.681 1011.17 564.242C1006.24 537.445 997.234 527.149 972.366 515.468C960.19 509.749 954.041 516.543 955.059 528.055C959.133 574.111 895.648 604.1 862.233 573.681C751.529 472.903 695.731 462.266 607.88 528.055C596.699 536.428 580.873 535.885 571.693 528.055C497.127 464.457 446.002 498.787 360.343 589.939C343.116 608.271 280.181 611.272 228.184 579.975C223.065 576.894 223.969 570.544 225.038 564.766C226.631 556.156 228.224 551.326 232.38 544.312Z" fill="#7A4939"/>
<path d="M823.951 702.559C660.167 774.833 537.595 783.451 437.678 705.642C424.24 695.177 406.654 711.874 415.276 717.869C567.176 823.477 659.856 822.118 837.515 720.131C846.726 714.844 836.595 696.98 823.951 702.559Z" fill="#7A4939"/>
</svg>
