<svg width="1195" height="1195" viewBox="0 0 1195 1195" fill="none" xmlns="http://www.w3.org/2000/svg">
<circle cx="597.852" cy="597.366" r="596.968" fill="#BC3608"/>
<path d="M232.796 544.312C239.322 533.299 217.402 520.964 206.574 533.299C188.369 554.036 182.107 568.038 181.606 599.537C181.606 609.555 196.341 614.879 200.997 608.271C203.378 604.892 204.881 601.715 207.921 599.537C212.173 596.489 216.704 597.631 222.94 600.708C341.814 660.508 413.416 657.053 546.411 611.442C586.351 595.762 610.741 594.812 657.069 604.1C803.386 641.262 878.172 644.803 983.271 583.646C990.052 579.701 993.7 577.373 1001.63 577.878C1010.72 578.456 1013.33 573.681 1011.59 564.242C1006.66 537.445 997.65 527.149 972.782 515.468C960.606 509.749 954.457 516.543 955.475 528.055C959.549 574.111 896.064 604.1 862.649 573.681C751.945 472.903 696.147 462.266 608.296 528.055C597.115 536.428 581.289 535.885 572.109 528.055C497.543 464.457 446.418 498.787 360.759 589.939C343.532 608.271 280.597 611.272 228.6 579.975C223.481 576.894 224.385 570.544 225.454 564.766C227.047 556.156 228.64 551.326 232.796 544.312Z" fill="#640C0C"/>
<path d="M824.367 702.559C660.583 774.833 538.011 783.451 438.094 705.642C424.656 695.177 407.07 711.874 415.692 717.869C567.592 823.477 660.272 822.118 837.931 720.131C847.142 714.844 837.011 696.98 824.367 702.559Z" fill="#640C0C"/>
</svg>
