<svg width="1363" height="1363" viewBox="0 0 1363 1363" fill="none" xmlns="http://www.w3.org/2000/svg">
<circle cx="681.831" cy="681.292" r="680.894" fill="white"/>
<circle cx="299.727" cy="948.313" r="70.173" fill="#2D68C4"/>
<circle cx="489.779" cy="948.313" r="70.173" fill="#CEDCED"/>
<circle cx="679.831" cy="948.313" r="70.173" fill="#AFB3CC"/>
<circle cx="869.883" cy="948.313" r="70.173" fill="#F3F388"/>
<circle cx="1059.94" cy="941.003" r="70.173" fill="#B18272"/>
<path d="M563.18 706.892C563.18 711.733 564.088 715.062 565.904 716.878C568.022 718.391 570.746 719.148 574.075 719.148C576.496 719.148 579.219 718.845 582.245 718.24C585.271 717.332 587.995 716.273 590.416 715.062C607.7 706.892 620.664 731.713 597.679 743.206C592.837 745.626 587.541 747.745 581.791 749.561C576.042 751.376 569.687 752.284 562.727 752.284C556.674 752.284 551.076 751.528 545.931 750.014C540.787 748.804 536.248 746.383 532.314 742.752C528.38 739.12 525.202 734.278 522.781 728.226C520.663 722.174 519.604 714.608 519.604 705.53V405.031C519.604 380.05 563.18 379.523 563.18 405.031V706.892Z" fill="black"/>
<path fill-rule="evenodd" clip-rule="evenodd" d="M338.675 427.728C355.017 427.728 369.24 430.149 381.345 434.99C393.449 439.832 403.436 446.339 411.303 454.509C419.474 462.377 425.527 471.607 429.461 482.199C433.697 492.79 435.815 503.987 435.815 515.789C435.815 546.354 422.803 567.839 396.778 580.247C414.33 586.299 427.493 595.831 436.269 608.844C445.045 621.856 449.433 637.895 449.433 656.96C449.433 683.59 441.414 705.076 425.375 721.417C409.336 737.456 384.976 745.475 352.293 745.475H246.983C237.357 745.474 229.554 737.671 229.554 728.046C229.554 718.42 237.357 710.617 246.983 710.617V462.589C237.357 462.589 229.554 454.786 229.554 445.16C229.554 435.535 237.357 427.732 246.983 427.732L338.675 427.728ZM290.559 599.765V710.069H352.293C362.885 710.069 371.661 708.405 378.621 705.076C385.884 701.747 391.633 697.511 395.87 692.366C400.107 686.919 402.982 680.867 404.495 674.209C406.31 667.552 407.218 660.894 407.218 654.236C407.218 647.579 406.31 640.921 404.495 634.264C402.982 627.606 400.107 621.856 395.87 617.015C391.633 611.87 385.884 607.785 378.621 604.759C371.661 601.43 362.885 599.765 352.293 599.765H290.559ZM290.559 463.134V564.359H338.675C349.267 564.359 358.043 562.846 365.003 559.82C372.266 556.491 378.016 552.406 382.252 547.564C386.489 542.722 389.364 537.275 390.877 531.223C392.693 525.17 393.6 519.118 393.6 513.066C393.6 507.013 392.693 501.112 390.877 495.363C389.364 489.31 386.489 483.863 382.252 479.021C378.016 474.179 372.266 470.397 365.003 467.673C358.043 464.647 349.267 463.134 338.675 463.134H290.559Z" fill="black"/>
<path fill-rule="evenodd" clip-rule="evenodd" d="M648.472 570.26C643.025 585.996 640.302 604.305 640.302 625.185C640.302 646.066 643.025 664.525 648.472 680.564C654.222 696.3 661.939 709.615 671.622 720.509C681.306 731.101 692.806 739.12 706.121 744.567C719.739 749.712 734.264 752.284 749.698 752.284C765.131 752.284 779.505 749.712 792.82 744.567C806.438 739.12 818.089 731.101 827.773 720.509C837.759 709.615 845.476 696.3 850.923 680.564C856.673 664.525 859.547 646.066 859.547 625.185C859.547 604.305 856.673 585.996 850.923 570.26C845.476 554.222 837.759 540.906 827.773 530.315C818.089 519.421 806.438 511.401 792.82 506.257C779.505 500.81 765.131 498.086 749.698 498.086C734.264 498.086 719.739 500.81 706.121 506.257C692.806 511.401 681.306 519.421 671.622 530.315C661.939 540.906 654.222 554.222 648.472 570.26ZM703.397 694.636C691.595 679.505 685.694 656.355 685.694 625.185C685.694 594.016 691.595 571.017 703.397 556.189C715.502 541.058 730.935 533.492 749.698 533.492C768.762 533.492 784.196 541.058 795.998 556.189C808.103 571.017 814.155 594.016 814.155 625.185C814.155 656.355 808.103 679.505 795.998 694.636C784.196 709.464 768.762 716.878 749.698 716.878C730.935 716.878 715.502 709.464 703.397 694.636Z" fill="black"/>
<path d="M973.504 504.895L975.774 533.946C985.155 524.565 996.2 516.243 1008.91 508.98C1021.62 501.718 1035.84 498.086 1051.58 498.086C1065.8 498.086 1077.91 499.751 1087.89 503.079C1097.88 506.408 1105.9 511.704 1111.95 518.967C1118.31 525.927 1122.85 535.157 1125.57 546.656C1128.6 558.156 1130.11 572.076 1130.11 588.417V745.475H1086.53V583.878C1086.53 550.288 1071.25 533.492 1040.68 533.492C1030.09 533.492 1019.65 535.913 1009.36 540.755C999.075 545.597 989.391 552.255 980.313 560.728V745.475H936.736V504.895C936.736 481.987 971.678 481.718 973.504 504.895Z" fill="black"/>
</svg>
 
