<svg width="1195" height="1195" viewBox="0 0 1195 1195" fill="none" xmlns="http://www.w3.org/2000/svg">
<path d="M1194.32 597.554C1194.32 927.25 927.048 1194.52 597.352 1194.52C267.655 1194.52 0.383789 927.25 0.383789 597.554C0.383789 267.858 267.655 0.586426 597.352 0.586426C927.048 0.586426 1194.32 267.858 1194.32 597.554Z" fill="#39495B"/>
<path d="M459.9 559.334C459.9 596.914 429.436 627.378 391.856 627.378C354.276 627.378 323.811 596.914 323.811 559.334C323.811 521.754 354.276 491.289 391.856 491.289C429.436 491.289 459.9 521.754 459.9 559.334Z" fill="white"/>
<path d="M884.412 559.334C884.412 596.914 853.947 627.378 816.367 627.378C778.787 627.378 748.323 596.914 748.323 559.334C748.323 521.754 778.787 491.289 816.367 491.289C853.947 491.289 884.412 521.754 884.412 559.334Z" fill="white"/>
<path fill-rule="evenodd" clip-rule="evenodd" d="M899.069 805.172C975.245 751.643 1016.82 681.865 1016.82 609.686C1016.82 537.506 975.245 467.728 899.069 414.199C823.021 360.76 715.634 326.314 594.944 326.314C474.253 326.314 366.867 360.76 290.819 414.199C214.643 467.728 173.07 537.506 173.07 609.686C173.07 681.865 214.643 751.643 290.819 805.172C366.867 858.611 474.253 893.057 594.944 893.057C715.634 893.057 823.021 858.611 899.069 805.172ZM594.944 937.057C852.239 937.057 1060.82 790.488 1060.82 609.686C1060.82 428.883 852.239 282.314 594.944 282.314C337.649 282.314 129.07 428.883 129.07 609.686C129.07 790.488 337.649 937.057 594.944 937.057Z" fill="white"/>
<path d="M683.518 797.197C683.518 815.771 648.323 830.828 604.908 830.828C561.494 830.828 526.299 815.771 526.299 797.197C526.299 778.622 561.494 763.565 604.908 763.565C648.323 763.565 683.518 778.622 683.518 797.197Z" fill="white"/>
</svg>
