<svg width="1194" height="1195" viewBox="0 0 1194 1195" fill="none" xmlns="http://www.w3.org/2000/svg">
<path d="M1193.94 597.554C1193.94 927.25 926.672 1194.52 596.976 1194.52C267.28 1194.52 0.00805664 927.25 0.00805664 597.554C0.00805664 267.858 267.28 0.586426 596.976 0.586426C926.672 0.586426 1193.94 267.858 1193.94 597.554Z" fill="#F3F9FF"/>
<path d="M459.525 559.334C459.525 596.914 429.06 627.378 391.48 627.378C353.9 627.378 323.435 596.914 323.435 559.334C323.435 521.754 353.9 491.289 391.48 491.289C429.06 491.289 459.525 521.754 459.525 559.334Z" fill="#39495B"/>
<path d="M884.036 559.334C884.036 596.914 853.572 627.378 815.992 627.378C778.412 627.378 747.947 596.914 747.947 559.334C747.947 521.754 778.412 491.289 815.992 491.289C853.572 491.289 884.036 521.754 884.036 559.334Z" fill="#39495B"/>
<path fill-rule="evenodd" clip-rule="evenodd" d="M898.693 805.172C974.869 751.643 1016.44 681.865 1016.44 609.686C1016.44 537.506 974.869 467.728 898.693 414.199C822.645 360.76 715.259 326.314 594.568 326.314C473.878 326.314 366.491 360.76 290.443 414.199C214.268 467.728 172.694 537.506 172.694 609.686C172.694 681.865 214.268 751.643 290.443 805.172C366.491 858.611 473.878 893.057 594.568 893.057C715.259 893.057 822.645 858.611 898.693 805.172ZM594.568 937.057C851.863 937.057 1060.44 790.488 1060.44 609.686C1060.44 428.883 851.863 282.314 594.568 282.314C337.273 282.314 128.694 428.883 128.694 609.686C128.694 790.488 337.273 937.057 594.568 937.057Z" fill="#39495B"/>
<path d="M683.142 797.197C683.142 815.771 647.947 830.828 604.533 830.828C561.118 830.828 525.923 815.771 525.923 797.197C525.923 778.622 561.118 763.565 604.533 763.565C647.947 763.565 683.142 778.622 683.142 797.197Z" fill="#39495B"/>
</svg>
