<svg width="1195" height="1195" viewBox="0 0 1195 1195" fill="none" xmlns="http://www.w3.org/2000/svg">
<path d="M1194.7 597.554C1194.7 927.25 927.423 1194.52 597.727 1194.52C268.031 1194.52 0.759399 927.25 0.759399 597.554C0.759399 267.858 268.031 0.586426 597.727 0.586426C927.423 0.586426 1194.7 267.858 1194.7 597.554Z" fill="#CEDCED"/>
<path d="M460.276 559.334C460.276 596.914 429.811 627.378 392.231 627.378C354.651 627.378 324.187 596.914 324.187 559.334C324.187 521.754 354.651 491.289 392.231 491.289C429.811 491.289 460.276 521.754 460.276 559.334Z" fill="white"/>
<path d="M884.788 559.334C884.788 596.914 854.323 627.378 816.743 627.378C779.163 627.378 748.698 596.914 748.698 559.334C748.698 521.754 779.163 491.289 816.743 491.289C854.323 491.289 884.788 521.754 884.788 559.334Z" fill="white"/>
<path fill-rule="evenodd" clip-rule="evenodd" d="M899.444 805.172C975.62 751.643 1017.19 681.865 1017.19 609.686C1017.19 537.506 975.62 467.728 899.444 414.199C823.397 360.76 716.01 326.314 595.32 326.314C474.629 326.314 367.243 360.76 291.195 414.199C215.019 467.728 173.446 537.506 173.446 609.686C173.446 681.865 215.019 751.643 291.195 805.172C367.243 858.611 474.629 893.057 595.32 893.057C716.01 893.057 823.397 858.611 899.444 805.172ZM595.32 937.057C852.615 937.057 1061.19 790.488 1061.19 609.686C1061.19 428.883 852.615 282.314 595.32 282.314C338.025 282.314 129.446 428.883 129.446 609.686C129.446 790.488 338.025 937.057 595.32 937.057Z" fill="white"/>
<path d="M683.893 797.197C683.893 815.771 648.699 830.828 605.284 830.828C561.869 830.828 526.675 815.771 526.675 797.197C526.675 778.622 561.869 763.565 605.284 763.565C648.699 763.565 683.893 778.622 683.893 797.197Z" fill="white"/>
</svg>
