<svg width="8232" height="2623" viewBox="0 0 8232 2623" fill="none" xmlns="http://www.w3.org/2000/svg">
<rect x="0.303711" y="0.0134277" width="8230.75" height="2622.49" fill="white"/>
<circle cx="4424.44" cy="690.014" r="488.008" fill="black"/>
<circle cx="6415.95" cy="690.815" r="488.809" fill="black"/>
<circle cx="864.368" cy="690.014" r="488.008" fill="#AFB3CC"/>
<circle cx="1715.61" cy="690.014" r="483.508" fill="white" stroke="#CEDCED" stroke-width="9"/>
<circle cx="7275.85" cy="686.193" r="484.187" fill="#CEDCED"/>
<circle cx="3527.94" cy="690.397" r="483.125" fill="white" stroke="#CEDCED" stroke-width="9"/>
<circle cx="1441.75" cy="881.392" r="50.2942" fill="#2D68C4"/>
<circle cx="1577.97" cy="881.392" r="50.2942" fill="#CEDCED"/>
<circle cx="1714.18" cy="881.392" r="50.2942" fill="#AFB3CC"/>
<circle cx="1850.39" cy="881.392" r="50.2942" fill="#F3F388"/>
<circle cx="1986.61" cy="876.153" r="50.2942" fill="#B18272"/>
<path d="M1630.58 708.362C1630.58 711.832 1631.23 714.218 1632.53 715.519C1634.05 716.603 1636 717.146 1638.38 717.146C1640.12 717.146 1642.07 716.929 1644.24 716.495C1646.41 715.844 1648.36 715.085 1650.1 714.218C1662.48 708.362 1671.78 726.152 1655.3 734.388C1651.83 736.124 1648.04 737.642 1643.91 738.943C1639.79 740.244 1635.24 740.895 1630.25 740.895C1625.91 740.895 1621.9 740.353 1618.21 739.268C1614.53 738.401 1611.27 736.666 1608.45 734.063C1605.63 731.46 1603.36 727.99 1601.62 723.652C1600.1 719.315 1599.34 713.892 1599.34 707.386V492.013C1599.34 474.109 1630.58 473.731 1630.58 492.013V708.362Z" fill="black"/>
<path fill-rule="evenodd" clip-rule="evenodd" d="M1469.67 508.28C1481.38 508.28 1491.58 510.015 1500.25 513.485C1508.93 516.956 1516.08 521.619 1521.72 527.475C1527.58 533.114 1531.92 539.729 1534.74 547.32C1537.77 554.912 1539.29 562.936 1539.29 571.395C1539.29 593.301 1529.96 608.7 1511.31 617.593C1523.89 621.931 1533.33 628.763 1539.62 638.089C1545.91 647.415 1549.05 658.911 1549.05 672.575C1549.05 691.661 1543.3 707.06 1531.81 718.772C1520.31 730.268 1502.85 736.015 1479.43 736.015H1403.95C1397.05 736.015 1391.46 730.422 1391.46 723.523C1391.46 716.624 1397.05 711.032 1403.95 711.032V533.266C1397.05 533.266 1391.46 527.673 1391.46 520.774C1391.46 513.875 1397.05 508.283 1403.95 508.283L1469.67 508.28ZM1435.18 631.582V710.639H1479.43C1487.02 710.639 1493.31 709.446 1498.3 707.06C1503.5 704.674 1507.63 701.638 1510.66 697.951C1513.7 694.047 1515.76 689.709 1516.84 684.938C1518.14 680.166 1518.79 675.394 1518.79 670.623C1518.79 665.851 1518.14 661.08 1516.84 656.308C1515.76 651.536 1513.7 647.415 1510.66 643.945C1507.63 640.258 1503.5 637.33 1498.3 635.161C1493.31 632.775 1487.02 631.582 1479.43 631.582H1435.18ZM1435.18 533.656V606.206H1469.67C1477.26 606.206 1483.55 605.122 1488.54 602.953C1493.74 600.567 1497.86 597.639 1500.9 594.169C1503.94 590.698 1506 586.794 1507.08 582.457C1508.38 578.119 1509.03 573.781 1509.03 569.443C1509.03 565.105 1508.38 560.876 1507.08 556.755C1506 552.417 1503.94 548.513 1500.9 545.043C1497.86 541.573 1493.74 538.862 1488.54 536.91C1483.55 534.741 1477.26 533.656 1469.67 533.656H1435.18Z" fill="black"/>
<path fill-rule="evenodd" clip-rule="evenodd" d="M1691.71 610.436C1687.8 621.714 1685.85 634.836 1685.85 649.801C1685.85 664.767 1687.8 677.997 1691.71 689.492C1695.83 700.771 1701.36 710.314 1708.3 718.122C1715.24 725.713 1723.48 731.46 1733.02 735.364C1742.78 739.052 1753.19 740.895 1764.26 740.895C1775.32 740.895 1785.62 739.052 1795.16 735.364C1804.92 731.46 1813.27 725.713 1820.21 718.122C1827.37 710.314 1832.9 700.771 1836.81 689.492C1840.93 677.997 1842.99 664.767 1842.99 649.801C1842.99 634.836 1840.93 621.714 1836.81 610.436C1832.9 598.94 1827.37 589.397 1820.21 581.806C1813.27 573.998 1804.92 568.25 1795.16 564.563C1785.62 560.659 1775.32 558.707 1764.26 558.707C1753.19 558.707 1742.78 560.659 1733.02 564.563C1723.48 568.25 1715.24 573.998 1708.3 581.806C1701.36 589.397 1695.83 598.94 1691.71 610.436ZM1731.07 699.578C1722.61 688.733 1718.38 672.141 1718.38 649.801C1718.38 627.461 1722.61 610.978 1731.07 600.35C1739.75 589.506 1750.81 584.083 1764.26 584.083C1777.92 584.083 1788.98 589.506 1797.44 600.35C1806.12 610.978 1810.45 627.461 1810.45 649.801C1810.45 672.141 1806.12 688.733 1797.44 699.578C1788.98 710.205 1777.92 715.519 1764.26 715.519C1750.81 715.519 1739.75 710.205 1731.07 699.578Z" fill="black"/>
<path d="M1924.66 563.587L1926.29 584.409C1933.01 577.685 1940.93 571.721 1950.04 566.515C1959.15 561.31 1969.34 558.707 1980.62 558.707C1990.81 558.707 1999.49 559.9 2006.65 562.286C2013.8 564.672 2019.55 568.467 2023.89 573.673C2028.44 578.661 2031.7 585.276 2033.65 593.518C2035.82 601.76 2036.9 611.737 2036.9 623.449V736.015H2005.67V620.196C2005.67 596.121 1994.72 584.083 1972.81 584.083C1965.22 584.083 1957.74 585.818 1950.36 589.289C1942.99 592.759 1936.05 597.531 1929.54 603.604V736.015H1898.31V563.587C1898.31 547.169 1923.35 546.975 1924.66 563.587Z" fill="black"/>
<circle cx="7004.13" cy="876.073" r="49.9004" fill="#2D68C4"/>
<circle cx="7139.28" cy="876.073" r="49.9004" fill="#CEDCED"/>
<circle cx="7274.43" cy="876.073" r="49.9004" fill="#AFB3CC"/>
<circle cx="7409.57" cy="876.073" r="49.9004" fill="#F3F388"/>
<circle cx="7544.72" cy="870.875" r="49.9004" fill="#B18272"/>
<path d="M7191.47 704.397C7191.47 707.84 7192.12 710.207 7193.41 711.498C7194.92 712.574 7196.85 713.112 7199.22 713.112C7200.94 713.112 7202.88 712.897 7205.03 712.466C7207.18 711.821 7209.12 711.068 7210.84 710.207C7223.13 704.397 7232.35 722.047 7216.01 730.22C7212.56 731.941 7208.8 733.448 7204.71 734.739C7200.62 736.03 7196.1 736.676 7191.15 736.676C7186.85 736.676 7182.87 736.138 7179.21 735.062C7175.55 734.201 7172.32 732.479 7169.53 729.897C7166.73 727.315 7164.47 723.872 7162.75 719.568C7161.24 715.264 7160.49 709.884 7160.49 703.428V489.742C7160.49 471.978 7191.47 471.603 7191.47 489.742V704.397Z" fill="black"/>
<path fill-rule="evenodd" clip-rule="evenodd" d="M7031.83 505.882C7043.45 505.882 7053.56 507.603 7062.17 511.046C7070.78 514.489 7077.88 519.116 7083.47 524.926C7089.28 530.521 7093.59 537.085 7096.39 544.616C7099.4 552.148 7100.91 560.11 7100.91 568.503C7100.91 590.237 7091.65 605.516 7073.15 614.339C7085.63 618.643 7094.99 625.421 7101.23 634.675C7107.47 643.928 7110.59 655.333 7110.59 668.89C7110.59 687.827 7104.89 703.106 7093.48 714.726C7082.08 726.131 7064.75 731.834 7041.51 731.834H6966.62C6959.78 731.833 6954.23 726.284 6954.23 719.44C6954.23 712.595 6959.78 707.046 6966.62 707.046V530.672C6959.78 530.672 6954.23 525.123 6954.23 518.278C6954.23 511.434 6959.78 505.885 6966.62 505.885L7031.83 505.882ZM6997.61 628.219V706.656H7041.51C7049.04 706.656 7055.28 705.473 7060.23 703.106C7065.4 700.739 7069.49 697.726 7072.5 694.068C7075.51 690.194 7077.56 685.89 7078.63 681.156C7079.92 676.422 7080.57 671.688 7080.57 666.953C7080.57 662.219 7079.92 657.485 7078.63 652.751C7077.56 648.016 7075.51 643.928 7072.5 640.485C7069.49 636.827 7065.4 633.921 7060.23 631.769C7055.28 629.402 7049.04 628.219 7041.51 628.219H6997.61ZM6997.61 531.059V603.041H7031.83C7039.36 603.041 7045.6 601.965 7050.55 599.813C7055.71 597.446 7059.8 594.541 7062.82 591.098C7065.83 587.655 7067.87 583.781 7068.95 579.478C7070.24 575.174 7070.89 570.87 7070.89 566.566C7070.89 562.262 7070.24 558.066 7068.95 553.977C7067.87 549.673 7065.83 545.8 7062.82 542.357C7059.8 538.914 7055.71 536.224 7050.55 534.287C7045.6 532.135 7039.36 531.059 7031.83 531.059H6997.61Z" fill="black"/>
<path fill-rule="evenodd" clip-rule="evenodd" d="M7252.13 607.238C7248.25 618.428 7246.32 631.447 7246.32 646.295C7246.32 661.143 7248.25 674.27 7252.13 685.675C7256.22 696.865 7261.7 706.334 7268.59 714.08C7275.47 721.612 7283.65 727.315 7293.12 731.188C7302.8 734.847 7313.13 736.676 7324.11 736.676C7335.08 736.676 7345.3 734.847 7354.77 731.188C7364.46 727.315 7372.74 721.612 7379.63 714.08C7386.73 706.334 7392.22 696.865 7396.09 685.675C7400.18 674.27 7402.22 661.143 7402.22 646.295C7402.22 631.447 7400.18 618.428 7396.09 607.238C7392.22 595.832 7386.73 586.364 7379.63 578.832C7372.74 571.085 7364.46 565.383 7354.77 561.724C7345.3 557.851 7335.08 555.914 7324.11 555.914C7313.13 555.914 7302.8 557.851 7293.12 561.724C7283.65 565.383 7275.47 571.085 7268.59 578.832C7261.7 586.364 7256.22 595.832 7252.13 607.238ZM7291.18 695.682C7282.79 684.922 7278.6 668.46 7278.6 646.295C7278.6 624.13 7282.79 607.775 7291.18 597.231C7299.79 586.471 7310.77 581.092 7324.11 581.092C7337.67 581.092 7348.64 586.471 7357.03 597.231C7365.64 607.775 7369.94 624.13 7369.94 646.295C7369.94 668.46 7365.64 684.922 7357.03 695.682C7348.64 706.226 7337.67 711.498 7324.11 711.498C7310.77 711.498 7299.79 706.226 7291.18 695.682Z" fill="black"/>
<path d="M7483.26 560.756L7484.87 581.414C7491.54 574.743 7499.4 568.826 7508.44 563.661C7517.47 558.496 7527.59 555.914 7538.78 555.914C7548.89 555.914 7557.5 557.098 7564.6 559.465C7571.7 561.832 7577.41 565.598 7581.71 570.762C7586.23 575.712 7589.46 582.275 7591.39 590.452C7593.54 598.63 7594.62 608.529 7594.62 620.149V731.834H7563.63V616.921C7563.63 593.035 7552.77 581.092 7531.03 581.092C7523.5 581.092 7516.08 582.813 7508.76 586.256C7501.44 589.699 7494.56 594.434 7488.1 600.459V731.834H7457.11V560.756C7457.11 544.466 7481.96 544.274 7483.26 560.756Z" fill="black"/>
<circle cx="4154.88" cy="878.439" r="50.2942" fill="#2D68C4"/>
<circle cx="4291.1" cy="878.439" r="50.2942" fill="#CEDCED"/>
<circle cx="4427.31" cy="878.439" r="50.2942" fill="#AFB3CC"/>
<circle cx="4563.52" cy="878.439" r="50.2942" fill="#F3F388"/>
<circle cx="4699.74" cy="873.2" r="50.2942" fill="#B18272"/>
<path d="M4343.7 705.408C4343.7 708.879 4344.36 711.265 4345.66 712.566C4347.17 713.65 4349.13 714.193 4351.51 714.193C4353.25 714.193 4355.2 713.976 4357.37 713.542C4359.54 712.891 4361.49 712.132 4363.22 711.264C4375.61 705.408 4384.9 723.198 4368.43 731.435C4364.96 733.17 4361.16 734.689 4357.04 735.99C4352.92 737.291 4348.37 737.942 4343.38 737.942C4339.04 737.942 4335.03 737.4 4331.34 736.315C4327.65 735.448 4324.4 733.713 4321.58 731.11C4318.76 728.507 4316.48 725.037 4314.75 720.699C4313.23 716.361 4312.47 710.939 4312.47 704.432V489.06C4312.47 471.156 4343.7 470.777 4343.7 489.06V705.408Z" fill="white"/>
<path fill-rule="evenodd" clip-rule="evenodd" d="M4182.8 505.327C4194.51 505.327 4204.7 507.062 4213.38 510.532C4222.06 514.002 4229.21 518.666 4234.85 524.522C4240.71 530.161 4245.05 536.776 4247.87 544.367C4250.9 551.958 4252.42 559.983 4252.42 568.442C4252.42 590.348 4243.09 605.747 4224.44 614.64C4237.02 618.978 4246.46 625.81 4252.75 635.136C4259.04 644.462 4262.18 655.958 4262.18 669.622C4262.18 688.708 4256.43 704.107 4244.94 715.819C4233.44 727.314 4215.98 733.062 4192.56 733.062H4117.08C4110.18 733.061 4104.59 727.469 4104.59 720.57C4104.59 713.671 4110.18 708.079 4117.08 708.079V530.312C4110.18 530.312 4104.59 524.72 4104.59 517.821C4104.59 510.922 4110.18 505.33 4117.08 505.33L4182.8 505.327ZM4148.31 628.629V707.686H4192.56C4200.15 707.686 4206.44 706.493 4211.43 704.107C4216.63 701.721 4220.75 698.685 4223.79 694.998C4226.83 691.094 4228.89 686.756 4229.97 681.984C4231.27 677.213 4231.92 672.441 4231.92 667.67C4231.92 662.898 4231.27 658.126 4229.97 653.355C4228.89 648.583 4226.83 644.462 4223.79 640.992C4220.75 637.305 4216.63 634.377 4211.43 632.208C4206.44 629.822 4200.15 628.629 4192.56 628.629H4148.31ZM4148.31 530.703V603.253H4182.8C4190.39 603.253 4196.68 602.169 4201.67 600C4206.87 597.614 4210.99 594.686 4214.03 591.216C4217.07 587.745 4219.13 583.841 4220.21 579.503C4221.51 575.166 4222.16 570.828 4222.16 566.49C4222.16 562.152 4221.51 557.923 4220.21 553.802C4219.13 549.464 4217.07 545.56 4214.03 542.09C4210.99 538.62 4206.87 535.908 4201.67 533.956C4196.68 531.788 4190.39 530.703 4182.8 530.703H4148.31Z" fill="white"/>
<path fill-rule="evenodd" clip-rule="evenodd" d="M4404.83 607.482C4400.93 618.761 4398.98 631.883 4398.98 646.848C4398.98 661.814 4400.93 675.044 4404.83 686.539C4408.96 697.817 4414.49 707.36 4421.43 715.169C4428.37 722.76 4436.61 728.507 4446.15 732.411C4455.91 736.098 4466.32 737.942 4477.38 737.942C4488.45 737.942 4498.75 736.098 4508.29 732.411C4518.05 728.507 4526.4 722.76 4533.34 715.169C4540.5 707.36 4546.03 697.817 4549.93 686.539C4554.06 675.044 4556.12 661.814 4556.12 646.848C4556.12 631.883 4554.06 618.761 4549.93 607.482C4546.03 595.987 4540.5 586.444 4533.34 578.853C4526.4 571.045 4518.05 565.297 4508.29 561.61C4498.75 557.706 4488.45 555.754 4477.38 555.754C4466.32 555.754 4455.91 557.706 4446.15 561.61C4436.61 565.297 4428.37 571.045 4421.43 578.853C4414.49 586.444 4408.96 595.987 4404.83 607.482ZM4444.2 696.624C4435.74 685.78 4431.51 669.188 4431.51 646.848C4431.51 624.508 4435.74 608.025 4444.2 597.397C4452.88 586.552 4463.94 581.13 4477.38 581.13C4491.05 581.13 4502.11 586.552 4510.57 597.397C4519.24 608.025 4523.58 624.508 4523.58 646.848C4523.58 669.188 4519.24 685.78 4510.57 696.624C4502.11 707.252 4491.05 712.566 4477.38 712.566C4463.94 712.566 4452.88 707.252 4444.2 696.624Z" fill="white"/>
<path d="M4637.79 560.634L4639.42 581.456C4646.14 574.732 4654.06 568.767 4663.17 563.562C4672.28 558.357 4682.47 555.754 4693.75 555.754C4703.94 555.754 4712.62 556.947 4719.78 559.333C4726.93 561.718 4732.68 565.514 4737.02 570.719C4741.57 575.708 4744.83 582.323 4746.78 590.565C4748.95 598.807 4750.03 608.784 4750.03 620.496V733.062H4718.8V617.243C4718.8 593.168 4707.85 581.13 4685.94 581.13C4678.35 581.13 4670.87 582.865 4663.49 586.336C4656.12 589.806 4649.18 594.577 4642.67 600.65V733.062H4611.44V560.634C4611.44 544.216 4636.48 544.022 4637.79 560.634Z" fill="white"/>
<path d="M3297.55 756.622V608.121H3330.55L3413.67 707.122V608.121H3446.05V756.622H3413.05L3329.52 657.209V756.622H3297.55Z" fill="#AFB3CC"/>
<path d="M3469.57 756.622V608.121H3606.73V640.296H3501.95V666.284H3586.31V698.459H3501.95V756.622H3469.57Z" fill="#AFB3CC"/>
<path d="M3670.96 756.622V640.296H3612.8V608.121H3761.3V640.296H3703.13V756.622H3670.96Z" fill="#AFB3CC"/>
<path d="M636.925 760.664V612.046H669.952L753.137 711.125V612.046H785.544V760.664H752.517L668.92 661.173V760.664H636.925Z" fill="white"/>
<path d="M809.082 760.664V612.046H946.347V644.247H841.489V670.255H925.912V702.456H841.489V760.664H809.082Z" fill="white"/>
<path d="M1010.63 760.664V644.247H952.42V612.046H1101.04V644.247H1042.83V760.664H1010.63Z" fill="white"/>
<path d="M6195.68 761.581V612.719H6228.76L6312.08 711.96V612.719H6344.54V761.581H6311.46L6227.73 661.926V761.581H6195.68Z" fill="#AFB3CC"/>
<path d="M6368.12 761.581V612.719H6505.61V644.972H6400.58V671.023H6485.14V703.277H6400.58V761.581H6368.12Z" fill="#AFB3CC"/>
<path d="M6570 761.581V644.972H6511.69V612.719H6660.56V644.972H6602.25V761.581H6570Z" fill="#AFB3CC"/>
</svg>
